<svg xmlns="http://www.w3.org/2000/svg" enable-background="new 0 0 1400 980" version="1.1" viewBox="0 0 1400 980"><path fill="#706973" d="m545.13 836.47h-256.41c-13.337 0-24.15-10.812-24.15-24.15v-404.81c0-13.337 10.812-24.15 24.15-24.15h256.41c13.337 0 24.149 10.812 24.149 24.15v404.81c-1e-5 13.337-10.812 24.15-24.149 24.15z" class="st1"/><path fill="#605964" d="m517.06 546.31h-200.27c-12.578 0-22.775-10.197-22.775-22.775v-88.819c0-12.578 10.197-22.775 22.775-22.775h200.27c12.578 0 22.775 10.197 22.775 22.775v88.819c0 12.578-10.197 22.775-22.775 22.775z" class="st2"/><path fill="#605964" d="m517.06 839.65h-200.27c-12.578 0-22.775-10.197-22.775-22.775v-215.46c0-12.578 10.197-22.775 22.775-22.775h200.27c12.578 0 22.775 10.197 22.775 22.775v215.46c0 12.578-10.197 22.775-22.775 22.775z" class="st2"/><path fill="#706973" d="m313.28 503.96h-3e-5c-3.8665 0-7.001-3.1344-7.001-7.001v-35.668c0-3.8665 3.1344-7.0009 7.001-7.0009h3e-5c3.8665 0 7.0009 3.1344 7.0009 7.0009v35.668c0 3.8665-3.1344 7.001-7.0009 7.001z" class="st1"/><path fill="#706973" d="m313.28 710.53h-3e-5c-3.8665 0-7.001-3.1345-7.001-7.0009v-35.668c0-3.8665 3.1344-7.0009 7.001-7.0009h3e-5c3.8665 0 7.0009 3.1344 7.0009 7.0009v35.668c0 3.8665-3.1344 7.0009-7.0009 7.0009z" class="st1"/><path fill="#706973" d="m570.24 537.01v50.795h336.04v-50.795c0-14.145-11.466-25.611-25.611-25.611h-284.82c-14.145 1e-5 -25.611 11.467-25.611 25.611z" class="st1"/><g fill="#615765"><path d="m657.15 549.61a16.639 16.639 0 0 1-16.639 16.639 16.639 16.639 0 0 1-16.639-16.639 16.639 16.639 0 0 1 16.639-16.639 16.639 16.639 0 0 1 16.639 16.639z" class="st0"/><path d="m754.9 549.61a16.639 16.639 0 0 1-16.639 16.639 16.639 16.639 0 0 1-16.639-16.639 16.639 16.639 0 0 1 16.639-16.639 16.639 16.639 0 0 1 16.639 16.639z" class="st0"/><path d="m852.65 549.61a16.639 16.639 0 0 1-16.639 16.639 16.639 16.639 0 0 1-16.639-16.639 16.639 16.639 0 0 1 16.639-16.639 16.639 16.639 0 0 1 16.639 16.639z" class="st0"/></g><path fill="#7a757c" d="m570.24 587.81h336.04v251.84h-336.04v-251.84z" class="st3"/><path fill="#706973" d="m832.66 835.29h-188.8c-11.041 0-19.992-8.9506-19.992-19.992v-167.31c0-11.041 8.9506-19.992 19.992-19.992h188.8c11.041 0 19.992 8.9506 19.992 19.992v167.31c0 11.041-8.9506 19.992-19.992 19.992z" class="st1"/><path fill="#7a757c" d="m906.28 663.3h237.95v46.196h-237.95v-46.196z" class="st3"/><path fill="#706973" d="m906.28 709.49h203.39v125.8h-203.39v-125.8z" class="st1"/><path fill="#d8d6e8" d="m679.03 663.86c-10.349 0-20.437-5.284-26.132-14.814-1.7673-2.9562-45.113-71.664-205.7-8.0474-15.612 6.1916-33.286-1.4567-39.472-17.071-6.1858-15.614 1.4578-33.287 17.072-39.472 78.918-31.264 146.46-39.024 200.73-23.067 51.595 15.169 73.952 47.049 79.574 56.458 8.6163 14.416 3.9138 33.088-10.503 41.703-4.8869 2.9207-10.264 4.3107-15.571 4.3107z" class="st4"/><path fill="#cbc9dd" d="m701.34 649c-4.887 2.9208-10.264 4.3108-15.571 4.3108-10.349 0-20.437-5.284-26.132-14.814-1.7672-2.9562-45.113-71.664-205.7-8.0474-15.612 6.1916-33.286-1.4567-39.472-17.071-2.8998-7.3197-2.7606-15.092-0.18576-21.92-8.1382 8.3209-11.108 20.955-6.5448 32.475 6.1864 15.614 23.86 23.263 39.472 17.071 160.59-63.617 203.93 5.0912 205.7 8.0474 5.6951 9.5302 15.783 14.814 26.132 14.814 5.3074 0 10.684-1.39 15.571-4.3107 6.1335-3.6652 10.501-9.1533 12.84-15.357-1.7834 1.8151-3.8234 3.4359-6.1099 4.8022z" class="st5"/><path fill="#f6af7f" d="m713.8 633.45a35.296 35.296 0 0 1-35.296 35.296 35.296 35.296 0 0 1-35.296-35.296 35.296 35.296 0 0 1 35.296-35.296 35.296 35.296 0 0 1 35.296 35.296z" class="st6"/><path fill="#ffd67b" d="m810.09 667.02-28.905-14.21c-1.6909-0.83124-3.4606-1.4916-5.2826-1.9712l-33.275-3.1753c-5.788-0.55237-11.428-2.1499-16.646-4.7151l-43.813-21.574c-3.4775-1.7096-7.8275-0.52069-9.6406 2.904-1.8762 3.5437-0.44263 7.9109 3.1298 9.6672l44.08 21.705c5.218 2.5652 9.9273 6.0555 13.9 10.301l22.836 24.409c1.4926 1.1499 3.0962 2.148 4.7871 2.9792l28.906 14.21c7.1608 3.5203 15.82 0.56915 19.34-6.5917l7.1769-14.599c3.5203-7.1608 0.56915-15.82-6.5917-19.34z" class="st7"/><path fill="#69be5a" d="m782.8 666.24c-3.4931 2.0235-5.8489 5.7928-5.8489 10.12 0 2.198 0.60779 4.252 1.6637 6.0065 1.8722 3.1108 6.4983 3.1108 8.3705-6e-5 1.0558-1.7544 1.6636-3.8084 1.6636-6.0064 0-4.3273-2.3558-8.0967-5.8489-10.12z" class="st8"/><path fill="#599f4d" d="m786.98 682.37c1.0558-1.7544 1.6636-3.8084 1.6636-6.0064 0-4.3273-2.3558-8.0967-5.8489-10.12v18.46c1.6246 0 3.2492-0.77771 4.1853-2.3331z" class="st9"/><path fill="#f6af7f" d="m368.78 515.62h83.091v47.482h-83.091v-47.482z" class="st6"/><path fill="#bd4e4b" d="m368.78 493.75h-21.162c-8.1519 0-14.76-6.6084-14.76-14.76v-45.704h35.923v60.464z" class="st10"/><path fill="#bd4e4b" d="m523.3 460.47h-19.059v-94.932h3e-5c10.526 0 19.059 8.5329 19.059 19.059v75.873z" class="st10"/><path fill="#f6af7f" d="m520.75 474.81h-17.446c-8.2942 0-15.018-6.7238-15.018-15.018v-3e-5c0-8.2942 6.7238-15.018 15.018-15.018h17.446c8.2942 0 15.018 6.7238 15.018 15.018v3e-5c-1e-5 8.2942-6.7239 15.018-15.018 15.018z" class="st6"/><path fill="#d2875e" d="m503.3 467.34c-4.1623 0-7.5488-3.3865-7.5488-7.5494 0-4.1618 3.3865-7.5483 7.5488-7.5483h17.446c4.1623 0 7.5488 3.3865 7.5488 7.5483 0 4.1628-3.3865 7.5494-7.5488 7.5494h-17.446z" class="st11"/><path fill="#f6af7f" d="m458.57 537.49h-47.27c-39.498 0-70.248-34.295-65.957-73.558l13.301-121.7h152.58l13.301 121.7c4.2911 39.264-26.46 73.558-65.957 73.558z" class="st6"/><path fill="#b23b32" d="m420.84 402.24h-41.308c-5.9401 0-10.756 4.8154-10.756 10.756 0 5.9401 4.8155 10.756 10.756 10.756h41.308c5.9401 0 10.756-4.8155 10.756-10.756 0-5.9402-4.8155-10.756-10.756-10.756z" class="st12"/><path fill="#ce8451" d="m414.44 443.26h-30.674c-2.2588 0-4.0898-1.831-4.0898-4.0898 0-2.2588 1.831-4.0898 4.0898-4.0898h30.674c2.2587 0 4.0898 1.831 4.0898 4.0898 1e-5 2.2587-1.8311 4.0898-4.0898 4.0898z" class="st13"/><path fill="#b23b32" d="m518.61 402.24h-37.039c-5.9401 0-10.756 4.8154-10.756 10.756 0 5.9401 4.8155 10.756 10.756 10.756h37.039c5.9401 0 10.756-4.8155 10.756-10.756 0-5.9402-4.8154-10.756-10.756-10.756z" class="st12"/><path fill="#ce8451" d="m512.2 443.26h-26.405c-2.2587 0-4.0898-1.831-4.0898-4.0898 0-2.2588 1.8311-4.0898 4.0898-4.0898h26.405c2.2587 0 4.0898 1.831 4.0898 4.0898 0 2.2587-1.831 4.0898-4.0898 4.0898z" class="st13"/><g fill="#b23b32"><path d="m460.53 476.46c1.9031-17.053-32.593-23.132-43.6 4.4483-7.6743 19.228-22.96 18.995-31.236 15.391-1.0159-0.44238-1.8419 0.87082-1.0111 1.604 15.528 13.705 70.185 29.297 75.847-21.443z" class="st12"/><path d="m457.89 476.46c-1.9031-17.053 32.593-23.132 43.6 4.4483 7.6743 19.228 22.96 18.995 31.236 15.391 1.0159-0.44238 1.8419 0.87082 1.0112 1.604-15.528 13.705-70.185 29.297-75.847-21.443z" class="st12"/></g><path fill="#f6af7f" d="m351.63 474.81h-17.446c-8.2942 0-15.018-6.7238-15.018-15.018v-3e-5c0-8.2942 6.7238-15.018 15.018-15.018h17.446c8.2943 0 15.018 6.7238 15.018 15.018v3e-5c0 8.2942-6.7238 15.018-15.018 15.018z" class="st6"/><path fill="#d2875e" d="m334.18 467.34c-4.1623 0-7.5488-3.3865-7.5488-7.5494 0-4.1618 3.3865-7.5483 7.5488-7.5483h17.446c4.1623 0 7.5488 3.3865 7.5488 7.5483 0 4.1628-3.3865 7.5494-7.5488 7.5494h-17.446z" class="st11"/><path fill="#bd4e4b" d="m332.86 335.47v109.3h15.552c8.697 0 15.747-7.0504 15.747-15.747v-93.55h-31.299z" class="st10"/><path fill="#bd4e4b" d="m359.18 350.76v51.483c14.217 0 25.742-11.525 25.742-25.742 0-14.217-11.525-25.742-25.742-25.742z" class="st10"/><path fill="#eae9f3" d="m345.84 231.29-21.066 131.89c-0.57114 6.5037 4.5544 12.099 11.083 12.099h177.08c6.5288 0 11.654-5.5954 11.083-12.099l-21.066-131.89h-157.11z" class="st14"/><path fill="#c9c9e2" d="m524.02 363.19-21.066-131.89h-19.271l18.788 131.89c0.50934 6.5037-4.062 12.099-9.8847 12.099h20.35c6.5287 0 11.654-5.5954 11.083-12.099z" class="st15"/><path fill="#eae9f3" d="m548.39 237.96a48.262 48.262 0 0 1-48.262 48.262 48.262 48.262 0 0 1-48.262-48.262 48.262 48.262 0 0 1 48.262-48.262 48.262 48.262 0 0 1 48.262 48.262z" class="st14"/><path fill="#c9c9e2" d="m540.64 211.74c1.5508 5.144 2.3936 10.595 2.3936 16.244 0 31.043-25.165 56.208-56.208 56.208-0.20013 0-0.39706-0.013-0.59665-0.01508 4.4027 1.3223 9.0665 2.0415 13.9 2.0415 26.654 0 48.262-21.607 48.262-48.262 1e-5 -9.6692-2.8544-18.667-7.7508-26.217z" class="st15"/><path fill="#eae9f3" d="m396.92 237.96a48.262 48.262 0 0 1-48.262 48.262 48.262 48.262 0 0 1-48.262-48.262 48.262 48.262 0 0 1 48.262-48.262 48.262 48.262 0 0 1 48.262 48.262z" class="st14"/><path fill="#eae9f3" d="m482.32 200.09a57.927 57.927 0 0 1-57.927 57.927 57.927 57.927 0 0 1-57.927-57.927 57.927 57.927 0 0 1 57.927-57.927 57.927 57.927 0 0 1 57.927 57.927z" class="st14"/><path fill="#c9c9e2" d="m467.72 161.66c3.4397 8.6793 5.3505 18.131 5.3505 28.035 0 29.638-16.942 55.303-41.66 67.888 28.681-3.4657 50.911-27.874 50.911-57.489 1e-5 -14.751-5.5226-28.206-14.601-38.433z" class="st15"/><path fill="#eae9f3" d="m450.28 585.24h-79.913c-6.1188 0-11.079-4.9603-11.079-11.079v-22.123c0-6.1188 4.9603-11.079 11.079-11.079h79.913c6.1188 0 11.079 4.9603 11.079 11.079v22.123c0 6.1188-4.9603 11.079-11.079 11.079z" class="st14"/><path fill="#c9c9e2" d="m450.28 540.96h-14.24c5.6484 0 10.227 4.5789 10.227 10.227v23.826c0 5.6484-4.5789 10.227-10.227 10.227h14.24c6.1188 0 11.079-4.9603 11.079-11.079v-22.123c0-6.1188-4.9603-11.079-11.079-11.079z" class="st15"/><path fill="#eae9f3" d="m517.78 856.07h-214.91v-227.07c0-30.75 24.928-55.679 55.679-55.679h103.56c30.75 0 55.679 24.928 55.679 55.679v227.07z" class="st14"/><path fill="#c9c9e2" d="m462.1 573.33h-18.932c29.146 0 52.774 23.628 52.774 52.774v229.97h21.836v-227.07c0-30.75-24.928-55.679-55.679-55.679z" class="st15"/><path fill="#c9c9e2" d="m463.88 573.37v62.948c0 2.4116 1.955 4.3666 4.3666 4.3666s4.3666-1.955 4.3666-4.3666v-61.989c-2.8405-0.5426-5.7573-0.86511-8.7332-0.95837z" class="st15"/><path fill="#635282" d="m457.47 609.25a5.6018 5.6018 0 0 1-5.6018 5.6018 5.6018 5.6018 0 0 1-5.6018-5.6018 5.6018 5.6018 0 0 1 5.6018-5.6018 5.6018 5.6018 0 0 1 5.6018 5.6018z" class="st16"/><path fill="#635282" d="m457.47 664.74a5.6018 5.6018 0 0 1-5.6018 5.6018 5.6018 5.6018 0 0 1-5.6018-5.6018 5.6018 5.6018 0 0 1 5.6018-5.6018 5.6018 5.6018 0 0 1 5.6018 5.6018z" class="st16"/><path fill="#635282" d="m457.47 720.22a5.6018 5.6018 0 0 1-5.6018 5.6018 5.6018 5.6018 0 0 1-5.6018-5.6018 5.6018 5.6018 0 0 1 5.6018-5.6018 5.6018 5.6018 0 0 1 5.6018 5.6018z" class="st16"/><path fill="#c86b64" d="m1113 816.87h-731.85c-10.824 0-19.598 8.7745-19.598 19.598v6e-5c0 10.824 8.7745 19.599 19.598 19.599h731.85c10.824 0 19.599-8.7745 19.599-19.599v-6e-5c-3e-5 -10.824-8.7746-19.598-19.599-19.598z" class="st17"/><path fill="#b35654" d="m1113 816.87h-49.444c10.824 0 19.598 8.7745 19.598 19.599v6e-5c0 10.824-8.7744 19.599-19.598 19.599h49.444c10.824 0 19.599-8.7745 19.599-19.599v-6e-5c0-10.824-8.7744-19.599-19.599-19.599z" class="st18"/><path fill="#d9968c" d="m401.39 816.87h-144.17c-10.824 0-19.598 8.7745-19.598 19.598v6e-5c0 10.824 8.7746 19.599 19.598 19.599h144.17c10.824 0 19.598-8.7745 19.598-19.599v-6e-5c0-10.824-8.7745-19.598-19.598-19.598z" class="st19"/><path fill="#4e4660" d="m690.25 803.71h371.81c3.634 0 6.58 2.9459 6.58 6.5799v6e-5c0 3.634-2.9459 6.5799-6.58 6.5799h-371.81c-3.634 0-6.58-2.9459-6.58-6.5799v-6e-5c0-3.634 2.946-6.5799 6.58-6.5799z" class="st20"/><path fill="#635e6d" d="m1048.9 803.71h13.13c3.634 0 6.58 2.9459 6.58 6.5799v6e-5c0 3.634-2.9459 6.5799-6.58 6.5799h-13.13c-3.634 0-6.58-2.9459-6.58-6.5799v-6e-5c0-3.634 2.9459-6.5799 6.58-6.5799z" class="st21"/><path fill="#ffe18b" d="m785.71 782.39c0 6.5916-3.4564 12.5-8.9213 16.524-5.4648-4.0237-8.9212-9.9322-8.9212-16.524 0-6.5916 3.4564-12.5 8.9212-16.524 5.4648 4.0238 8.9213 9.9322 8.9213 16.524z" class="st22"/><path fill="#f89c5b" d="m780.57 791.08c0 3.1232-1.4683 5.9228-3.7899 7.8294-2.3215-1.9066-3.7899-4.7061-3.7899-7.8294s1.4683-5.9228 3.7899-7.8294c2.3216 1.9066 3.7899 4.7061 3.7899 7.8294z" class="st23"/><path fill="#ffe18b" d="m760.47 785.99c0 5.1244-2.6871 9.7178-6.9356 12.846-4.2485-3.1282-6.9356-7.7216-6.9356-12.846s2.6871-9.7179 6.9356-12.846c4.2485 3.1282 6.9356 7.7216 6.9356 12.846z" class="st22"/><path fill="#f89c5b" d="m756.48 792.75c0 2.4281-1.1415 4.6046-2.9464 6.0867-1.8049-1.4822-2.9464-3.6586-2.9464-6.0867s1.1415-4.6046 2.9464-6.0867c1.8048 1.4822 2.9464 3.6586 2.9464 6.0867z" class="st23"/><path fill="#ffe18b" d="m806.97 787.25c0 5.1244-2.6871 9.7178-6.9356 12.846-4.2485-3.1282-6.9356-7.7216-6.9356-12.846s2.687-9.7178 6.9356-12.846c4.2485 3.1282 6.9356 7.7216 6.9356 12.846z" class="st22"/><path fill="#f89c5b" d="m802.98 794.01c0 2.4281-1.1415 4.6046-2.9464 6.0867-1.8049-1.4822-2.9464-3.6586-2.9464-6.0867 0-2.428 1.1415-4.6046 2.9464-6.0867 1.8049 1.4822 2.9464 3.6587 2.9464 6.0867z" class="st23"/><path fill="#72776a" d="m732.06 798.91h93.897v4.8016h-93.897v-4.8016z" class="st24"/><g fill="#4e4660"><path d="m727.61 811c-2.6519 0-4.8016-2.1497-4.8016-4.8016v-15.205c0-6.4229 5.2256-11.648 11.649-11.648h9.1582c2.6519 0 4.8015 2.1496 4.8015 4.8015s-2.1497 4.8016-4.8015 4.8016h-9.1582c-1.1274 0-2.0455 0.91699-2.0455 2.0444v15.205c-1e-5 2.6519-2.1497 4.8016-4.8015 4.8016z" class="st20"/><path d="m825.96 811c-2.6519 0-4.8016-2.1497-4.8016-4.8016v-15.205c0-1.1274-0.91803-2.0444-2.0455-2.0444h-9.1582c-2.6519 0-4.8015-2.1497-4.8015-4.8016s2.1497-4.8015 4.8015-4.8015h9.1582c6.4229 0 11.649 5.2246 11.649 11.648v15.205c0 2.6519-2.1497 4.8016-4.8015 4.8016z" class="st20"/></g><path fill="#4e4660" d="m776.78 808.52c-2.6519 0-4.8016-2.1497-4.8016-4.8016v-19.562c0-2.6519 2.1497-4.8015 4.8016-4.8015s4.8016 2.1496 4.8016 4.8015v19.562c1e-5 2.6519-2.1496 4.8016-4.8016 4.8016z" class="st20"/><path fill="#72776a" d="m930.81 798.91h93.897v4.8016h-93.897v-4.8016z" class="st24"/><g fill="#4e4660"><path d="m926.36 811c-2.6519 0-4.8016-2.1497-4.8016-4.8016v-15.205c0-6.4229 5.2256-11.648 11.649-11.648h9.1582c2.6519 0 4.8016 2.1496 4.8016 4.8015s-2.1497 4.8016-4.8016 4.8016h-9.1582c-1.1274 0-2.0455 0.91699-2.0455 2.0444v15.205c-1e-5 2.6519-2.1497 4.8016-4.8015 4.8016z" class="st20"/><path d="m1024.7 811c-2.6519 0-4.8016-2.1497-4.8016-4.8016v-15.205c0-1.1274-0.91803-2.0444-2.0455-2.0444h-9.1581c-2.6519 0-4.8016-2.1497-4.8016-4.8016s2.1497-4.8015 4.8016-4.8015h9.1581c6.423 0 11.649 5.2246 11.649 11.648v15.205c-1e-5 2.6519-2.1497 4.8016-4.8015 4.8016z" class="st20"/></g><path fill="#4e4660" d="m975.54 808.52c-2.6519 0-4.8016-2.1497-4.8016-4.8016v-19.562c0-2.6519 2.1497-4.8015 4.8016-4.8015s4.8016 2.1496 4.8016 4.8015v19.562c0 2.6519-2.1497 4.8016-4.8016 4.8016z" class="st20"/><path fill="#d8d6e8" d="m697.55 747.7c-4.4197 0-8.0026-3.5824-8.0026-8.0026v-10.868h-31.21c-4.4196 0-8.0026-3.5824-8.0026-8.0026 0-4.4202 3.583-8.0026 8.0026-8.0026h39.213c4.4202 0 8.0026 3.5824 8.0026 8.0026v18.871c0 4.4202-3.5824 8.0026-8.0026 8.0026z" class="st4"/><path fill="#565067" d="m577.38 720.82c0 7.2568 5.8828 13.14 13.139 13.14h72.775c7.2567 0 13.139-5.8828 13.139-13.14 0-7.2568-5.8828-13.14-13.139-13.14h-72.775c-7.2567 0-13.139 5.8828-13.139 13.14z" class="st25"/><path fill="#e06663" d="m832.39 756.77h-128.58c-11.123 0-20.14-9.017-20.14-20.14v-20.807c0-2.2835 1.8512-4.1346 4.1347-4.1346h160.59c2.2836 0 4.1347 1.8511 4.1347 4.1346v20.807c1e-5 11.123-9.0169 20.14-20.14 20.14z" class="st26"/><path fill="#c74f50" d="m848.39 711.68h-15.827c2.2834 0 4.1347 1.8511 4.1347 4.1346v20.807c0 11.123-9.017 20.14-20.14 20.14h15.827c11.123 0 20.14-9.017 20.14-20.14v-20.807c1e-5 -2.2836-1.8511-4.1346-4.1347-4.1346z" class="st27"/><path fill="#c74f50" d="m688.87 750.1c3.686 4.0853 9.0051 6.6688 14.941 6.6688h128.58c5.9358 0 11.255-2.5835 14.941-6.6688h-158.46z" class="st27"/><path fill="#f19c9c" d="m760.56 714.89h-18.399c-1.1975 0-2.1683 0.97076-2.1683 2.1683v6e-5c0 1.1975 0.97083 2.1683 2.1683 2.1683h18.399c1.1976 0 2.1684-0.97076 2.1684-2.1683v-6e-5c0-1.1976-0.97083-2.1683-2.1684-2.1683z" class="st28"/><path fill="#f19c9c" d="m776.64 714.89h-6.0674c-1.1975 0-2.1683 0.97076-2.1683 2.1683v6e-5c0 1.1975 0.97083 2.1683 2.1683 2.1683h6.0674c1.1975 0 2.1683-0.97076 2.1683-2.1683v-6e-5c1e-5 -1.1976-0.97082-2.1683-2.1683-2.1683z" class="st28"/><path fill="#f6af7f" d="m592.93 739.29h-74.932c-13.554 0-24.541-10.988-24.541-24.541 0-13.553 10.987-24.541 24.541-24.541h74.932c13.554 0 24.541 10.988 24.541 24.541 0 13.553-10.987 24.541-24.541 24.541z" class="st6"/><path fill="#d8d6e8" d="m490.6 745.16c-52.872 0-89.27-1.1973-118.3-15.375-18.841-9.2009-33.049-23.19-43.435-42.767-8.9529-16.875-15.265-38.298-19.866-67.417-2.6212-16.59 8.7023-32.163 25.292-34.783 16.587-2.6258 32.162 8.7018 34.783 25.29 7.9645 50.41 19.617 59.996 29.913 65.024 19.198 9.3749 56.271 9.2905 107.59 9.1832 5.9535-0.01251 12.116-0.02606 18.496-0.02606 16.795 0 30.41 13.615 30.41 30.41s-13.615 30.41-30.41 30.41c-6.3344 0-12.453 0.01349-18.364 0.026-5.5309 0.01148-10.899 0.02399-16.103 0.02399z" class="st4"/><path fill="#cbc9dd" d="m531.12 733.45c-6.3344 0-12.453 0.01355-18.364 0.02606-5.5309 0.01147-10.899 0.02399-16.103 0.02399-52.872 0-89.27-1.1973-118.3-15.375-18.841-9.2009-33.049-23.19-43.435-42.767-8.9529-16.875-15.265-38.298-19.866-67.417-0.685-4.3352-0.40979-8.5983 0.65491-12.582-5.4267 6.5007-8.1317 15.217-6.7062 24.238 4.601 29.119 10.913 50.541 19.866 67.417 10.386 19.577 24.594 33.566 43.435 42.767 29.034 14.177 65.432 15.375 118.3 15.375 5.2038 0 10.572-0.01251 16.103-0.02399 5.9113-0.01251 12.03-0.026 18.364-0.026 14.083 0 25.926-9.5753 29.384-22.569-5.5783 6.6686-13.959 10.913-23.333 10.913z" class="st5"/><path fill="#f6af7f" d="m630.06 725.45a35.296 35.296 0 0 1-35.296 35.296 35.296 35.296 0 0 1-35.296-35.296 35.296 35.296 0 0 1 35.296-35.296 35.296 35.296 0 0 1 35.296 35.296z" class="st6"/><g fill="#b7b6ce"><path d="m520.79 730.76a5.3148 5.3148 0 0 1-5.3148 5.3148 5.3148 5.3148 0 0 1-5.3148-5.3148 5.3148 5.3148 0 0 1 5.3148-5.3148 5.3148 5.3148 0 0 1 5.3148 5.3148z" class="st29"/><path d="m497.85 730.76a5.3148 5.3148 0 0 1-5.3148 5.3148 5.3148 5.3148 0 0 1-5.3148-5.3148 5.3148 5.3148 0 0 1 5.3148-5.3148 5.3148 5.3148 0 0 1 5.3148 5.3148z" class="st29"/></g><path fill="#599f4d" d="m709.8 643.29a7.1672 7.1672 0 0 1-7.1672 7.1672 7.1672 7.1672 0 0 1-7.1672-7.1672 7.1672 7.1672 0 0 1 7.1672-7.1672 7.1672 7.1672 0 0 1 7.1672 7.1672z" class="st9"/><path fill="#69be5a" d="m708.14 643.29a5.5082 5.5082 0 0 1-5.5082 5.5082 5.5082 5.5082 0 0 1-5.5082-5.5082 5.5082 5.5082 0 0 1 5.5082-5.5082 5.5082 5.5082 0 0 1 5.5082 5.5082z" class="st8"/><path fill="#b3cd89" d="m704.84 641.01a1.108 1.108 0 0 1-1.108 1.108 1.108 1.108 0 0 1-1.108-1.108 1.108 1.108 0 0 1 1.108-1.108 1.108 1.108 0 0 1 1.108 1.108z" class="st30"/><path fill="#b3cd89" d="m706.75 644.49a1.3335 1.3335 0 0 1-1.3335 1.3335 1.3335 1.3335 0 0 1-1.3335-1.3335 1.3335 1.3335 0 0 1 1.3335-1.3335 1.3335 1.3335 0 0 1 1.3335 1.3335z" class="st30"/><path fill="#b3cd89" d="m701.77 644.1a1.7286 1.7286 0 0 1-1.7286 1.7286 1.7286 1.7286 0 0 1-1.7286-1.7286 1.7286 1.7286 0 0 1 1.7286-1.7286 1.7286 1.7286 0 0 1 1.7286 1.7286z" class="st30"/><path fill="#599f4d" d="m845 669.96a7.1672 7.1672 0 0 1-7.1672 7.1672 7.1672 7.1672 0 0 1-7.1672-7.1672 7.1672 7.1672 0 0 1 7.1672-7.1672 7.1672 7.1672 0 0 1 7.1672 7.1672z" class="st9"/><path fill="#69be5a" d="m843.34 669.96a5.5082 5.5082 0 0 1-5.5082 5.5082 5.5082 5.5082 0 0 1-5.5082-5.5082 5.5082 5.5082 0 0 1 5.5082-5.5082 5.5082 5.5082 0 0 1 5.5082 5.5082z" class="st8"/><path fill="#b3cd89" d="m840.04 667.69a1.108 1.108 0 0 1-1.108 1.108 1.108 1.108 0 0 1-1.108-1.108 1.108 1.108 0 0 1 1.108-1.108 1.108 1.108 0 0 1 1.108 1.108z" class="st30"/><path fill="#b3cd89" d="m841.95 671.17a1.3335 1.3335 0 0 1-1.3335 1.3335 1.3335 1.3335 0 0 1-1.3335-1.3335 1.3335 1.3335 0 0 1 1.3335-1.3335 1.3335 1.3335 0 0 1 1.3335 1.3335z" class="st30"/><path fill="#b3cd89" d="m836.97 670.78a1.7286 1.7286 0 0 1-1.7286 1.7286 1.7286 1.7286 0 0 1-1.7286-1.7286 1.7286 1.7286 0 0 1 1.7286-1.7286 1.7286 1.7286 0 0 1 1.7286 1.7286z" class="st30"/><path fill="#599f4d" d="m735.99 608.62a7.1672 7.1672 0 0 1-7.1672 7.1672 7.1672 7.1672 0 0 1-7.1672-7.1672 7.1672 7.1672 0 0 1 7.1672-7.1672 7.1672 7.1672 0 0 1 7.1672 7.1672z" class="st9"/><path fill="#69be5a" d="m734.33 608.62a5.5082 5.5082 0 0 1-5.5082 5.5082 5.5082 5.5082 0 0 1-5.5082-5.5082 5.5082 5.5082 0 0 1 5.5082-5.5082 5.5082 5.5082 0 0 1 5.5082 5.5082z" class="st8"/><path fill="#b3cd89" d="m731.03 606.34a1.108 1.108 0 0 1-1.108 1.108 1.108 1.108 0 0 1-1.108-1.108 1.108 1.108 0 0 1 1.108-1.108 1.108 1.108 0 0 1 1.108 1.108z" class="st30"/><path fill="#b3cd89" d="m732.94 609.83a1.3335 1.3335 0 0 1-1.3335 1.3335 1.3335 1.3335 0 0 1-1.3335-1.3335 1.3335 1.3335 0 0 1 1.3335-1.3335 1.3335 1.3335 0 0 1 1.3335 1.3335z" class="st30"/><path fill="#b3cd89" d="m727.96 609.43a1.7286 1.7286 0 0 1-1.7286 1.7286 1.7286 1.7286 0 0 1-1.7286-1.7286 1.7286 1.7286 0 0 1 1.7286-1.7286 1.7286 1.7286 0 0 1 1.7286 1.7286z" class="st30"/><path fill="#599f4d" d="m817.21 643.66c-3.3314 0-6.0416-2.7103-6.0416-6.0411 0-3.3314 2.7103-6.0417 6.0416-6.0417 3.3314 0 6.0417 2.7103 6.0417 6.0417 0 3.3308-2.7103 6.0411-6.0417 6.0411zm0-10.384c-2.3944 0-4.3425 1.9481-4.3425 4.3425 0 2.3944 1.9481 4.3419 4.3425 4.3419 2.3945 0 4.3425-1.9475 4.3425-4.3419 0-2.3945-1.9481-4.3425-4.3425-4.3425z" class="st9"/><path fill="#fdb740" d="m731.62 645.18c-2.5911 0-4.6991-2.108-4.6991-4.6987 0-2.5911 2.108-4.6992 4.6991-4.6992s4.6992 2.108 4.6992 4.6992c-1e-5 2.5907-2.108 4.6987-4.6992 4.6987zm0-8.0763c-1.8624 0-3.3775 1.5152-3.3775 3.3776s1.5151 3.3771 3.3775 3.3771 3.3776-1.5148 3.3776-3.3771-1.5152-3.3776-3.3776-3.3776z" class="st31"/><path fill="#f47f51" d="m785.41 636.71v3.5768c0 6.4764-5.2507 11.727-11.727 11.727h-4.8454c-2.127 0-3.8534-1.7264-3.8534-3.8534 0-1.0635 0.43408-2.0269 1.1304-2.7231 0.69623-0.70105 1.6596-1.1303 2.7231-1.1303h4.0919c1.8218 0 3.3002-1.4784 3.3002-3.3002 0-0.86322-0.32904-1.6501-0.88226-2.2367-0.02386-0.03339-0.05725-0.06677-0.08588-0.0954-0.59613-0.59613-1.4211-0.96808-2.332-0.96808h-18.437v-17.011h14.899c1.984 0 3.8821 0.36243 5.6371 1.0206 1.5547 0.58661 2.995 1.4069 4.2778 2.4179 3.7199 2.9283 6.1044 7.4732 6.1044 12.576z" class="st32"/><g fill="#fbc3b1"><path d="m776.23 641.77c0-0.12433-0.0105-0.24615-0.02582-0.36664-0.19574 1.6354-1.5866 2.905-3.2744 2.905h-4.0919c-1.0635 0-2.0269 0.42926-2.7231 1.1303-0.69629 0.69629-1.1304 1.6597-1.1304 2.7231 0 0.04669 0.00537 0.09204 0.00702 0.13843 0.03595-0.93848 0.45752-1.7867 1.1234-2.4064 0.69623-0.65253 1.6596-1.0521 2.7231-1.0521h4.0919c1.8218 0 3.3002-1.3761 3.3002-3.0718z" class="st33"/><path d="m779.31 624.13c-1.2828-1.011-2.7231-1.8313-4.2778-2.4179-1.755-0.65814-3.6531-1.0206-5.6371-1.0206h-14.899v2.1675h14.899c1.984 0 3.8821 0.3374 5.6371 0.94995 1.5547 0.54602 2.995 1.3095 4.2778 2.2506 3.7199 2.7256 6.1044 6.9559 6.1044 11.706v-1.0592c0-5.1029-2.3845-9.6478-6.1044-12.576z" class="st33"/></g><path fill="#f79d80" d="m769.95 626.3v5.804c0 2.1556-0.82513 4.1252-2.1795 5.6037h-4.2064c2.3273-0.80121 4.0013-3.0093 4.0013-5.6037v-5.804c0-2.5944-1.6835-4.8072-4.0156-5.6036h4.2207c1.3544 1.4784 2.1795 3.4481 2.1795 5.6036z" class="st34"/><path fill="#f79d80" d="m771.71 652.01c-0.35791-0.60388-0.5672-1.3057-0.5672-2.0572v-4.2772c0-0.4823 0.08905-0.94312 0.24438-1.3725h-2.4781c-0.09662 0.44281-0.15082 0.90118-0.15082 1.3725v4.2772c0 0.71997 0.12402 1.4103 0.34314 2.0572h2.6086z" class="st34"/><path fill="#f79d80" d="m779.51 627.47-0.81555 5.742c-0.3147 2.1986-1.464 4.1395-3.2382 5.4749-0.03339 0.02386-0.06677 0.05243-0.10492 0.07629-0.02386-0.03339-0.05725-0.06677-0.08588-0.0954-0.59613-0.59613-1.4211-0.96808-2.332-0.96808h-0.69629c0.63422-0.20032 1.2399-0.51031 1.7884-0.92047 1.2638-0.94904 2.0841-2.3368 2.3082-3.9011l0.81549-5.7468c0.22418-1.5642-0.17639-3.1237-1.1254-4.3875-0.29102-0.38629-0.62482-0.73444-0.992-1.0349 1.5547 0.58661 2.995 1.4069 4.2778 2.4179 0.29096 1.0731 0.36243 2.2034 0.20032 3.3432z" class="st34"/><path fill="#f79d80" d="m785.41 638.5v-1.788c0-0.36322-0.01526-0.72266-0.03906-1.0798-0.50977 0.45416-1.1019 0.83173-1.774 1.0944l-5.4058 2.1112c-0.8175 0.3194-1.6629 0.43823-2.4864 0.39075 0.33405 0.51337 0.52478 1.1246 0.52478 1.7805 0 0.20996-0.02179 0.41461-0.05927 0.61371 0.96289-0.0144 1.9394-0.19318 2.8881-0.56342l5.4062-2.1116c0.32991-0.12887 0.64204-0.28267 0.94544-0.44765z" class="st34"/><path fill="#f79d80" d="m780.71 647.84-4.3494-3.8418c-0.32043-0.28308-0.6026-0.59735-0.85046-0.93347-0.50409 0.63043-1.234 1.0695-2.0671 1.1993 0.38086 0.55188 0.8233 1.0663 1.3388 1.5217l4.3495 3.8418c0.24731 0.21838 0.50836 0.41431 0.77515 0.59973 0.7215-0.45245 1.3904-0.98041 1.995-1.5742-0.4228-0.22107-0.82453-0.48877-1.1914-0.81299z" class="st34"/><path fill="#faab74" d="m754.49 637.7c-3.3362 0-6.0408-2.7046-6.0408-6.0408v-4.9281c0-3.3362 2.7046-6.0408 6.0408-6.0408 3.3363 0 6.0408 2.7046 6.0408 6.0408v4.9281c0 3.3362-2.7045 6.0408-6.0408 6.0408z" class="st35"/><path fill="#a33823" d="m768.09 646.68c-1.9768-2.0539-6.8566-0.56458-9.8701 2.336-3.0136 2.9006-2.1858 5.3113-0.20892 7.3652 1.9768 2.0538 4.3541 2.9731 7.3677 0.07245 3.0135-2.9006 4.6882-7.7198 2.7113-9.7736z" class="st36"/><path fill="#d8542b" d="m769.13 649.28c1.2355-2.5691-1.8621-6.623-5.6316-8.4357s-5.7401-0.19617-6.9756 2.3729c-1.2354 2.569-1.2679 5.1176 2.5016 6.9304s8.8702 1.7015 10.106-0.86749z" class="st37"/><path fill="#f47f51" d="m725.44 524.4 2.5292 2.5292c4.5795 4.5795 4.5795 12.005 0 16.585l-3.4262 3.4262c-1.504 1.504-3.9456 1.504-5.4496 0-0.75201-0.75195-1.1263-1.7401-1.1263-2.7248-0.00336-0.98804 0.37433-1.9728 1.1263-2.7248l2.8934-2.8934c1.2882-1.2882 1.2882-3.379-6e-5 -4.6672-0.61035-0.61041-1.3995-0.93414-2.2054-0.95776-0.04047-0.00671-0.08765-0.00671-0.12817-0.00671-0.84302 0-1.6894 0.32037-2.3336 0.96442l-13.037 13.037-12.029-12.029 10.535-10.535c1.4029-1.4029 3.0013-2.4888 4.7077-3.2643 1.5142-0.68457 3.1126-1.123 4.7346-1.3152 4.7009-0.55983 9.6008 0.96782 13.209 4.5762z" class="st32"/><g fill="#fbc3b1"><path d="m722.52 534.47c-0.08789-0.08789-0.18146-0.16663-0.27759-0.24097 1.018 1.2948 0.93237 3.176-0.26105 4.3695l-2.8934 2.8934c-0.75201 0.75201-1.1297 1.7368-1.1263 2.7248 6e-5 0.98468 0.37433 1.9728 1.1263 2.7248 0.03302 0.03308 0.06885 0.06134 0.10278 0.09296-0.63818-0.68903-0.93982-1.5868-0.90729-2.4959 0.03094-0.95374 0.42963-1.9174 1.1816-2.6694l2.8934-2.8934c1.2882-1.2882 1.3606-3.3066 0.16151-4.5057z" class="st33"/><path d="m712.23 519.82c-1.622 0.1922-3.2205 0.63062-4.7346 1.3152-1.7064 0.77557-3.3048 1.8614-4.7077 3.2643l-10.535 10.535 1.5327 1.5327 10.535-10.535c1.4029-1.4029 2.9836-2.5065 4.6577-3.3143 1.4855-0.71326 3.0438-1.1918 4.6163-1.4335 4.5576-0.70313 9.235 0.60205 12.594 3.9606l-0.74896-0.7489c-3.6083-3.6083-8.5082-5.136-13.209-4.5762z" class="st33"/></g><path fill="#f79d80" d="m707.14 527.97 4.1041 4.104c1.5242 1.5243 2.3336 3.5004 2.4213 5.5035l-2.9744 2.9744c1.0792-2.2122 0.70148-4.9573-1.1331-6.7918l-4.104-4.1041c-1.8345-1.8345-4.5897-2.2088-6.8019-1.1229l2.9844-2.9845c2.0031 0.0877 3.9793 0.89702 5.5036 2.4213z" class="st34"/><path fill="#f79d80" d="m726.57 544.91c-0.68005-0.17389-1.3243-0.52216-1.8556-1.0535l-3.0245-3.0245c-0.34106-0.34106-0.60388-0.72986-0.79767-1.1433l-1.7523 1.7523c0.24469 0.38141 0.53052 0.74384 0.86377 1.0771l3.0245 3.0245c0.50909 0.50909 1.085 0.90942 1.6973 1.212l1.8445-1.8446z" class="st34"/><path fill="#f79d80" d="m714.73 522.04 3.4835 4.6369c1.3321 1.7772 1.8919 3.9623 1.5817 6.1611-0.00671 0.04047-0.01013 0.08429-0.02026 0.12811-0.04047-0.00671-0.08765-0.00671-0.12817-0.00671-0.84302 0-1.6894 0.32037-2.3336 0.96442l-0.49237 0.49243c0.30688-0.59015 0.51599-1.2376 0.61377-1.9155 0.2226-1.5648-0.17871-3.1261-1.1263-4.3906l-3.4869-4.6403c-0.94757-1.2646-2.3336-2.0841-3.8982-2.3066-0.47888-0.06744-0.96112-0.07758-1.4332-0.03033 1.5142-0.68457 3.1126-1.123 4.7346-1.3152 0.96446 0.55305 1.8142 1.3017 2.5056 2.2223z" class="st34"/><path fill="#f79d80" d="m726.7 525.66-1.2643-1.2643c-0.25677-0.25684-0.52173-0.50024-0.79114-0.73596-0.03937 0.68164-0.19104 1.3672-0.48065 2.0283l-2.3296 5.3152c-0.35223 0.80396-0.86597 1.4857-1.4819 2.0344 0.59918 0.12689 1.1663 0.42419 1.6301 0.888 0.1485 0.14844 0.27777 0.30853 0.39209 0.47583 0.67065-0.69104 1.2347-1.5079 1.6438-2.4406l2.3296-5.3159c0.14214-0.3244 0.25408-0.65387 0.35204-0.98505z" class="st34"/><path fill="#f79d80" d="m729.98 535.59-5.7921 0.35901c-0.4267 0.02643-0.84851 0.00372-1.2615-0.05872 0.08942 0.80219-0.11627 1.6288-0.61359 2.3097 0.65955 0.12091 1.3361 0.17181 2.0226 0.12933l5.7921-0.35895c0.32928-0.02045 0.6524-0.06653 0.97217-0.12408 0.19025-0.83008 0.28992-1.6764 0.29755-2.5238-0.45533 0.14264-0.92866 0.23749-1.4172 0.26752z" class="st34"/><path fill="#faab74" d="m704.28 546.97-6e-5 6e-5c-2.3591 2.3591-6.1839 2.3591-8.543 0l-3.4846-3.4847c-2.3591-2.3591-2.3591-6.184 0-8.543 2.3591-2.3591 6.1839-2.3591 8.543 0l3.4847 3.4847c2.3591 2.3591 2.3591 6.1839 0 8.543z" class="st35"/><path fill="#a33823" d="m720.25 543.69c-2.8502-0.05444-5.2475 4.4491-5.3274 8.631-0.0799 4.182 2.2101 5.3013 5.0602 5.3557 2.8501 0.05444 5.1811-0.97656 5.2609-5.1586 0.07989-4.1819-2.1437-8.7737-4.9938-8.8282z" class="st36"/><path fill="#d8542b" d="m722.82 544.8c-0.94299-2.6901-5.9999-3.3664-9.9471-1.9827s-4.1976 3.9202-3.2546 6.6104c0.94293 2.6901 2.7222 4.5152 6.6694 3.1316 3.9473-1.3837 7.4753-5.0691 6.5323-7.7592z" class="st37"/><path fill="#f47f51" d="m797.74 513.06-2.5292 2.5292c-4.5795 4.5795-12.005 4.5795-16.585-6e-5l-3.4262-3.4262c-1.504-1.504-1.504-3.9456 0-5.4496 0.75201-0.75198 1.7401-1.1263 2.7248-1.1263 0.9881-0.00339 1.9728 0.3743 2.7248 1.1263l2.8934 2.8934c1.2882 1.2882 3.379 1.2882 4.6671-3e-5 0.61041-0.61038 0.93414-1.3995 0.95776-2.2054 0.00671-0.0405 0.00671-0.08768 0.00671-0.12817 0-0.84305-0.32037-1.6895-0.96442-2.3336l-13.037-13.037 12.029-12.029 10.535 10.535c1.4029 1.4029 2.4888 3.0014 3.2643 4.7077 0.68457 1.5142 1.123 3.1126 1.3152 4.7346 0.55983 4.701-0.96782 9.6008-4.5761 13.209z" class="st32"/><g fill="#fbc3b1"><path d="m787.67 510.14c0.08789-0.08792 0.16663-0.18149 0.24103-0.27756-1.2948 1.018-3.1761 0.93237-4.3695-0.26108l-2.8934-2.8934c-0.75201-0.75201-1.7367-1.1297-2.7248-1.1263-0.98468 0-1.9728 0.3743-2.7248 1.1263-0.03302 0.03305-0.06134 0.06891-0.09296 0.10281 0.68909-0.63815 1.5869-0.93982 2.4959-0.90726 0.95374 0.03094 1.9175 0.42963 2.6695 1.1816l2.8934 2.8934c1.2882 1.2882 3.3066 1.3606 4.5057 0.16151z" class="st33"/><path d="m802.32 499.85c-0.1922-1.622-0.63062-3.2205-1.3152-4.7346-0.77557-1.7063-1.8614-3.3048-3.2643-4.7077l-10.535-10.535-1.5327 1.5327 10.535 10.535c1.403 1.4029 2.5065 2.9836 3.3143 4.6578 0.71326 1.4854 1.1918 3.0437 1.4335 4.6163 0.70313 4.5576-0.60205 9.2351-3.9606 12.594l0.74896-0.74896c3.6083-3.6083 5.1359-8.5082 4.5761-13.209z" class="st33"/></g><path fill="#f79d80" d="m794.17 494.76-4.104 4.104c-1.5242 1.5242-3.5004 2.3336-5.5035 2.4212l-2.9744-2.9743c2.2122 1.0792 4.9573 0.70148 6.7918-1.133l4.1041-4.104c1.8345-1.8345 2.2088-4.5896 1.1229-6.8019l2.9844 2.9845c-0.0877 2.0031-0.89697 3.9793-2.4213 5.5035z" class="st34"/><path fill="#f79d80" d="m777.23 514.19c0.17389-0.68011 0.52216-1.3243 1.0535-1.8557l3.0245-3.0245c0.34106-0.34103 0.72986-0.60388 1.1433-0.79767l-1.7523-1.7523c-0.38147 0.24475-0.7439 0.53055-1.0772 0.86383l-3.0245 3.0245c-0.50909 0.50909-0.90948 1.0849-1.212 1.6972l1.8446 1.8446z" class="st34"/><path fill="#f79d80" d="m800.09 502.35-4.6369 3.4835c-1.7772 1.3321-3.9623 1.8919-6.1611 1.5816-0.04047-0.00674-0.08429-0.01013-0.12811-0.02023 0.00671-0.0405 0.00671-0.08768 0.00671-0.12817 0-0.84305-0.32037-1.6895-0.96442-2.3336l-0.49237-0.49237c0.59015 0.30685 1.2376 0.51596 1.9154 0.61377 1.5648 0.22253 3.1261-0.17874 4.3907-1.1263l4.6402-3.4869c1.2646-0.94757 2.0841-2.3336 2.3066-3.8983 0.06744-0.47891 0.07758-0.96112 0.03033-1.4332 0.68457 1.5142 1.123 3.1126 1.3152 4.7346-0.55305 0.96451-1.3017 1.8143-2.2223 2.5056z" class="st34"/><path fill="#f79d80" d="m796.48 514.32 1.2643-1.2643c0.25677-0.25677 0.50018-0.52173 0.7359-0.79114-0.68158-0.03937-1.3672-0.19104-2.0283-0.48062l-5.3152-2.3296c-0.80389-0.35223-1.4857-0.86597-2.0344-1.4819-0.12689 0.59918-0.42419 1.1663-0.888 1.6301-0.14844 0.14847-0.30853 0.27777-0.47583 0.39206 0.69104 0.67065 1.508 1.2348 2.4406 1.6438l5.3159 2.3296c0.32435 0.14214 0.65382 0.25414 0.98499 0.35204z" class="st34"/><path fill="#f79d80" d="m786.54 517.6-0.35895-5.7921c-0.02643-0.42673-0.00372-0.84848 0.05865-1.2614-0.80219 0.08939-1.6288-0.1163-2.3097-0.61362-0.12091 0.65955-0.17175 1.3361-0.12933 2.0226l0.35895 5.7921c0.02045 0.32928 0.06653 0.6524 0.12408 0.97217 0.83008 0.19025 1.6764 0.28992 2.5238 0.29755-0.14263-0.45532-0.23742-0.92865-0.26751-1.4172z" class="st34"/><path fill="#faab74" d="m775.17 491.9c-2.3591-2.3591-2.3591-6.1839 0-8.543l3.4846-3.4846c2.3591-2.3591 6.184-2.3591 8.543 0h6e-5c2.3591 2.3591 2.3591 6.1839 0 8.543l-3.4847 3.4846c-2.3591 2.3591-6.184 2.3591-8.543 0z" class="st35"/><path fill="#a33823" d="m778.44 507.87c0.05444-2.8502-4.4491-5.2476-8.631-5.3274-4.182-0.0799-5.3013 2.2101-5.3557 5.0602-0.05444 2.8501 0.97656 5.1811 5.1586 5.261 4.1819 0.07983 8.7737-2.1438 8.8282-4.9938z" class="st36"/><path fill="#d8542b" d="m777.34 510.44c2.6902-0.94299 3.3664-5.9999 1.9827-9.9471-1.3836-3.9473-3.9202-4.1976-6.6104-3.2546-2.6901 0.94296-4.5152 2.7222-3.1315 6.6695 1.3836 3.9472 5.069 7.4753 7.7592 6.5323z" class="st37"/><path fill="#f47f51" d="m764.88 583.01-2.5292 2.5292c-4.5795 4.5795-12.005 4.5795-16.585 0l-3.4262-3.4262c-1.504-1.504-1.504-3.9456 0-5.4496 0.75195-0.75195 1.7401-1.1263 2.7248-1.1263 0.98804-0.00336 1.9728 0.37433 2.7248 1.1263l2.8934 2.8934c1.2882 1.2882 3.379 1.2882 4.6672 0 0.61041-0.61035 0.93414-1.3995 0.95776-2.2054 0.00671-0.04047 0.00671-0.08765 0.00671-0.12817 0-0.84308-0.32037-1.6894-0.96442-2.3336l-13.037-13.037 12.029-12.029 10.535 10.535c1.4029 1.4029 2.4888 3.0013 3.2643 4.7077 0.68457 1.5142 1.123 3.1126 1.3152 4.7346 0.55983 4.7009-0.96781 9.6008-4.5761 13.209z" class="st32"/><g fill="#fbc3b1"><path d="m754.82 580.09c0.08789-0.08795 0.16663-0.18152 0.24097-0.27759-1.2948 1.018-3.176 0.93237-4.3695-0.26111l-2.8934-2.8934c-0.75201-0.75201-1.7368-1.1297-2.7248-1.1263-0.98468 0-1.9728 0.37433-2.7248 1.1263-0.03308 0.03308-0.06134 0.06891-0.09296 0.10284 0.68903-0.63818 1.5868-0.93988 2.4959-0.90729 0.95374 0.03094 1.9175 0.42963 2.6694 1.1816l2.8934 2.8934c1.2882 1.2882 3.3066 1.3606 4.5057 0.16151z" class="st33"/><path d="m769.46 569.8c-0.1922-1.6221-0.63062-3.2205-1.3152-4.7346-0.77557-1.7064-1.8614-3.3048-3.2643-4.7077l-10.535-10.535-1.5327 1.5327 10.535 10.535c1.4029 1.4029 2.5065 2.9836 3.3143 4.6577 0.71326 1.4854 1.1918 3.0438 1.4335 4.6163 0.70313 4.5577-0.60205 9.2351-3.9606 12.594l0.74896-0.74896c3.6083-3.6083 5.1359-8.5082 4.5761-13.209z" class="st33"/></g><path fill="#f79d80" d="m761.31 564.71-4.104 4.1041c-1.5243 1.5242-3.5004 2.3335-5.5035 2.4212l-2.9744-2.9743c2.2122 1.0792 4.9573 0.70148 6.7918-1.1331l4.1041-4.1041c1.8345-1.8345 2.2088-4.5896 1.1229-6.8019l2.9845 2.9845c-0.0877 2.0031-0.89703 3.9793-2.4213 5.5035z" class="st34"/><path fill="#f79d80" d="m744.38 584.14c0.17389-0.68005 0.52216-1.3243 1.0535-1.8556l3.0245-3.0245c0.34106-0.341 0.72986-0.60382 1.1433-0.79761l-1.7523-1.7523c-0.38141 0.24475-0.74384 0.53058-1.0771 0.86383l-3.0245 3.0245c-0.50903 0.50909-0.90942 1.0849-1.212 1.6973l1.8446 1.8445z" class="st34"/><path fill="#f79d80" d="m767.24 572.3-4.6369 3.4835c-1.7772 1.3321-3.9623 1.8919-6.1611 1.5817-0.04047-0.00677-0.08429-0.01013-0.12811-0.02026 0.00671-0.04047 0.00671-0.08765 0.00671-0.12817 0-0.84308-0.32037-1.6894-0.96442-2.3336l-0.49243-0.49237c0.59015 0.30688 1.2376 0.51593 1.9155 0.61377 1.5648 0.22253 3.1261-0.17877 4.3906-1.1263l4.6403-3.4869c1.2646-0.94757 2.0841-2.3336 2.3066-3.8982 0.06744-0.47894 0.07758-0.96112 0.03033-1.4332 0.68457 1.5142 1.123 3.1126 1.3152 4.7346-0.55305 0.96447-1.3017 1.8143-2.2223 2.5056z" class="st34"/><path fill="#f79d80" d="m763.62 584.27 1.2643-1.2643c0.25677-0.25684 0.50018-0.52179 0.7359-0.79114-0.68164-0.03937-1.3672-0.19104-2.0283-0.48065l-5.3152-2.3296c-0.80396-0.35223-1.4857-0.86597-2.0344-1.4819-0.12689 0.59918-0.42419 1.1663-0.888 1.6301-0.14844 0.1485-0.30853 0.27777-0.47583 0.39209 0.69104 0.67065 1.5079 1.2347 2.4406 1.6437l5.3159 2.3296c0.32434 0.14208 0.65381 0.25408 0.98499 0.35198z" class="st34"/><path fill="#f79d80" d="m753.69 587.55-0.35901-5.7921c-0.02643-0.42676-0.00372-0.84851 0.05872-1.2615-0.80219 0.08936-1.6288-0.11627-2.3097-0.61359-0.12091 0.65955-0.17181 1.3361-0.12933 2.0226l0.35895 5.7921c0.02045 0.32928 0.06653 0.6524 0.12408 0.97217 0.83008 0.19025 1.6764 0.28986 2.5238 0.29755-0.14264-0.45532-0.23749-0.92865-0.26752-1.4172z" class="st34"/><path fill="#faab74" d="m742.32 561.85h-6e-5c-2.3591-2.3591-2.3591-6.1839 0-8.543l3.4847-3.4847c2.3591-2.3591 6.184-2.3591 8.543 0v6e-5c2.3591 2.3591 2.3591 6.1839 0 8.543l-3.4846 3.4846c-2.3591 2.3591-6.184 2.3591-8.543 0z" class="st35"/><path fill="#a33823" d="m745.59 577.82c0.05444-2.8502-4.4491-5.2476-8.631-5.3274-4.182-0.0799-5.3013 2.2101-5.3557 5.0602-0.05444 2.8501 0.97656 5.1811 5.1586 5.2609 4.1819 0.07989 8.7737-2.1437 8.8282-4.9938z" class="st36"/><path fill="#d8542b" d="m744.49 580.39c2.6902-0.94299 3.3664-5.9999 1.9827-9.9471-1.3836-3.9473-3.9202-4.1976-6.6104-3.2546-2.6901 0.94293-4.5152 2.7222-3.1315 6.6694 1.3836 3.9473 5.069 7.4753 7.7592 6.5323z" class="st37"/><path fill="#f47f51" d="m802.45 565.87 2.5292 2.5292c4.5795 4.5795 12.005 4.5795 16.585 0l3.4262-3.4262c1.504-1.504 1.504-3.9456 0-5.4496-0.75201-0.75201-1.7401-1.1263-2.7248-1.1263-0.98804-0.00336-1.9728 0.37433-2.7248 1.1263l-2.8934 2.8934c-1.2882 1.2882-3.379 1.2882-4.6672-6e-5 -0.61041-0.61035-0.93414-1.3995-0.95776-2.2054-0.00671-0.04047-0.00671-0.08765-0.00671-0.12817 0-0.84302 0.32037-1.6894 0.96442-2.3335l13.037-13.037-12.029-12.029-10.535 10.535c-1.4029 1.4029-2.4888 3.0013-3.2643 4.7077-0.68457 1.5142-1.123 3.1126-1.3152 4.7346-0.55983 4.7009 0.96782 9.6008 4.5761 13.209z" class="st32"/><g fill="#fbc3b1"><path d="m812.52 562.95c-0.08789-0.08789-0.16663-0.18146-0.24097-0.27759 1.2947 1.018 3.176 0.93237 4.3695-0.26105l2.8934-2.8934c0.75201-0.75201 1.7368-1.1297 2.7248-1.1263 0.98468 6e-5 1.9728 0.37433 2.7248 1.1263 0.03308 0.03302 0.06134 0.06885 0.09296 0.10278-0.68903-0.63818-1.5868-0.93982-2.4959-0.90729-0.95374 0.03094-1.9175 0.42963-2.6694 1.1816l-2.8934 2.8934c-1.2882 1.2882-3.3066 1.3605-4.5057 0.16151z" class="st33"/><path d="m797.88 552.66c0.1922-1.622 0.63062-3.2205 1.3152-4.7346 0.77557-1.7064 1.8614-3.3048 3.2643-4.7077l10.535-10.535 1.5327 1.5327-10.535 10.535c-1.4029 1.4029-2.5065 2.9836-3.3143 4.6577-0.71326 1.4855-1.1918 3.0438-1.4335 4.6163-0.70313 4.5576 0.60205 9.235 3.9606 12.594l-0.74896-0.74896c-3.6083-3.6083-5.1359-8.5082-4.5761-13.209z" class="st33"/></g><path fill="#f79d80" d="m806.03 547.57 4.104 4.1041c1.5243 1.5242 3.5004 2.3336 5.5035 2.4213l2.9744-2.9744c-2.2122 1.0792-4.9573 0.70148-6.7918-1.1331l-4.1041-4.104c-1.8345-1.8345-2.2088-4.5897-1.1229-6.8019l-2.9845 2.9844c0.0877 2.0031 0.89697 3.9793 2.4213 5.5036z" class="st34"/><path fill="#f79d80" d="m822.96 567c-0.17389-0.68005-0.52216-1.3243-1.0535-1.8556l-3.0245-3.0245c-0.34106-0.34106-0.72986-0.60388-1.1433-0.79767l1.7523-1.7523c0.38141 0.24475 0.74384 0.53052 1.0771 0.86377l3.0245 3.0245c0.50909 0.50909 0.90948 1.085 1.212 1.6973l-1.8446 1.8445z" class="st34"/><path fill="#f79d80" d="m800.1 555.17 4.6369 3.4835c1.7772 1.3321 3.9623 1.8919 6.1611 1.5817 0.04047-0.00671 0.08429-0.01013 0.12811-0.02026-0.00671-0.04047-0.00671-0.08765-0.00671-0.12817 0-0.84302 0.32037-1.6894 0.96442-2.3335l0.49237-0.49243c-0.59009 0.30688-1.2376 0.51599-1.9154 0.61377-1.5648 0.2226-3.1261-0.17871-4.3907-1.1263l-4.6402-3.4869c-1.2646-0.94757-2.0841-2.3336-2.3066-3.8982-0.06744-0.47888-0.07758-0.96112-0.03033-1.4332-0.68457 1.5142-1.123 3.1126-1.3152 4.7346 0.55305 0.96446 1.3017 1.8142 2.2223 2.5056z" class="st34"/><path fill="#f79d80" d="m803.72 567.13-1.2643-1.2643c-0.25677-0.25677-0.50018-0.52173-0.7359-0.79114 0.68164-0.03937 1.3672-0.19104 2.0283-0.48065l5.3152-2.3296c0.80389-0.35223 1.4857-0.86597 2.0344-1.4819 0.12689 0.59918 0.42419 1.1663 0.888 1.6301 0.14844 0.1485 0.30853 0.27783 0.47583 0.39209-0.69104 0.67065-1.5079 1.2347-2.4406 1.6438l-5.3159 2.3296c-0.32435 0.14214-0.65382 0.25408-0.98499 0.35204z" class="st34"/><path fill="#f79d80" d="m813.65 570.41 0.35901-5.7921c0.02643-0.4267 0.00372-0.84845-0.05872-1.2615 0.80219 0.08942 1.6288-0.11627 2.3097-0.61359 0.12091 0.65955 0.17181 1.3361 0.12933 2.0226l-0.35895 5.7921c-0.02045 0.32928-0.06653 0.6524-0.12408 0.97217-0.83008 0.19025-1.6764 0.28992-2.5238 0.29755 0.14264-0.45532 0.23749-0.92865 0.26752-1.4172z" class="st34"/><path fill="#faab74" d="m825.02 544.71v-6e-5c2.3591-2.3591 2.3591-6.1839 0-8.543l-3.4846-3.4846c-2.3591-2.3591-6.184-2.3591-8.543 0-2.3591 2.3591-2.3591 6.1839 0 8.543l3.4846 3.4847c2.3591 2.3591 6.184 2.3591 8.543 0z" class="st35"/><path fill="#a33823" d="m821.75 560.68c-0.05444-2.8502 4.4491-5.2475 8.631-5.3274 4.182-0.0799 5.3013 2.2101 5.3557 5.0602 0.05444 2.8501-0.97656 5.1811-5.1586 5.2609-4.1819 0.07989-8.7737-2.1437-8.8282-4.9938z" class="st36"/><path fill="#d8542b" d="m822.85 563.25c-2.6902-0.94299-3.3664-5.9999-1.9827-9.9471 1.3836-3.9473 3.9202-4.1976 6.6104-3.2546 2.6901 0.94293 4.5152 2.7222 3.1315 6.6694-1.3836 3.9473-5.069 7.4753-7.7592 6.5323z" class="st37"/><path fill="#f47f51" d="m799.08 687.07 2.5292 2.5292c4.5795 4.5795 12.005 4.5795 16.585 0l3.4262-3.4262c1.504-1.504 1.5041-3.9456 6e-5 -5.4496-0.75201-0.75195-1.7402-1.1263-2.7248-1.1263-0.98804-0.00336-1.9728 0.37433-2.7248 1.1263l-2.8934 2.8934c-1.2882 1.2882-3.379 1.2882-4.6672-6e-5 -0.61035-0.61035-0.93414-1.3995-0.9577-2.2054-0.00677-0.04047-0.00677-0.08765-0.00677-0.12817 0-0.84302 0.32037-1.6894 0.96448-2.3336l13.037-13.037-12.029-12.029-10.535 10.535c-1.4029 1.4029-2.4888 3.0013-3.2643 4.7077-0.68457 1.5142-1.123 3.1126-1.3152 4.7346-0.55977 4.7009 0.96782 9.6008 4.5762 13.209z" class="st32"/><g fill="#fbc3b1"><path d="m809.15 684.16c-0.08789-0.08795-0.16663-0.18152-0.24097-0.27759 1.2948 1.018 3.176 0.93237 4.3695-0.26105l2.8934-2.8934c0.75201-0.75201 1.7368-1.1297 2.7248-1.1263 0.98468 0 1.9728 0.37433 2.7248 1.1263 0.03302 0.03308 0.06128 0.06891 0.0929 0.10284-0.68903-0.63818-1.5868-0.93982-2.4959-0.90729-0.95374 0.03094-1.9174 0.42963-2.6694 1.1816l-2.8934 2.8934c-1.2882 1.2882-3.3066 1.3606-4.5057 0.16151z" class="st33"/><path d="m794.51 673.86c0.1922-1.622 0.63062-3.2205 1.3152-4.7346 0.77557-1.7064 1.8614-3.3048 3.2643-4.7077l10.535-10.535 1.5327 1.5327-10.535 10.535c-1.4029 1.4029-2.5065 2.9836-3.3143 4.6577-0.71326 1.4855-1.1918 3.0438-1.4335 4.6163-0.70313 4.5576 0.60211 9.235 3.9607 12.594l-0.74896-0.74896c-3.6083-3.6083-5.1359-8.5082-4.5762-13.209z" class="st33"/></g><path fill="#f79d80" d="m802.66 668.78 4.1041 4.1041c1.5242 1.5242 3.5004 2.3336 5.5035 2.4212l2.9743-2.9743c-2.2122 1.0792-4.9572 0.70148-6.7918-1.1331l-4.1041-4.104c-1.8345-1.8345-2.2088-4.5897-1.1229-6.8019l-2.9845 2.9845c0.08771 2.0031 0.89704 3.9793 2.4213 5.5035z" class="st34"/><path fill="#f79d80" d="m819.59 688.21c-0.17389-0.68005-0.52216-1.3243-1.0535-1.8556l-3.0245-3.0245c-0.341-0.34106-0.72986-0.60388-1.1432-0.79767l1.7523-1.7523c0.38141 0.24475 0.74384 0.53058 1.0772 0.86383l3.0245 3.0245c0.50909 0.50909 0.90942 1.0849 1.212 1.6973l-1.8446 1.8445z" class="st34"/><path fill="#f79d80" d="m796.73 676.37 4.6368 3.4835c1.7772 1.3321 3.9623 1.8919 6.1611 1.5817 0.04047-0.00677 0.08435-0.01013 0.12817-0.02026-0.00677-0.04047-0.00677-0.08765-0.00677-0.12817 0-0.84302 0.32037-1.6894 0.96448-2.3336l0.49237-0.49237c-0.59015 0.30688-1.2376 0.51599-1.9155 0.61377-1.5648 0.22253-3.1261-0.17871-4.3906-1.1263l-4.6403-3.4869c-1.2646-0.94757-2.084-2.3336-2.3066-3.8982-0.06744-0.47894-0.07758-0.96112-0.03033-1.4332-0.68457 1.5142-1.123 3.1126-1.3152 4.7346 0.55305 0.96446 1.3017 1.8142 2.2224 2.5056z" class="st34"/><path fill="#f79d80" d="m800.35 688.34-1.2643-1.2643c-0.25684-0.25677-0.50024-0.52179-0.7359-0.79114 0.68158-0.03937 1.3672-0.19104 2.0282-0.48065l5.3152-2.3296c0.80396-0.35223 1.4857-0.86597 2.0344-1.4819 0.12689 0.59918 0.42419 1.1663 0.888 1.6301 0.14844 0.1485 0.30859 0.27777 0.47589 0.39209-0.6911 0.67065-1.508 1.2347-2.4407 1.6437l-5.3159 2.3296c-0.3244 0.14208-0.65387 0.25408-0.98505 0.35204z" class="st34"/><path fill="#f79d80" d="m810.28 691.62 0.35895-5.7921c0.02643-0.42676 0.00372-0.84851-0.05872-1.2615 0.80219 0.08942 1.6288-0.11627 2.3097-0.61359 0.12097 0.65955 0.17181 1.3361 0.12933 2.0226l-0.35895 5.7921c-0.02045 0.32928-0.06653 0.6524-0.12402 0.97217-0.83008 0.19025-1.6764 0.28992-2.5239 0.29755 0.14264-0.45533 0.23749-0.92866 0.26758-1.4172z" class="st34"/><path fill="#faab74" d="m821.65 665.91c2.3591-2.3591 2.3591-6.1839 0-8.543l-3.4847-3.4846c-2.3591-2.3591-6.184-2.3591-8.543 0-2.3591 2.3591-2.3591 6.1839 0 8.543l3.4847 3.4846c2.3591 2.3591 6.1839 2.3591 8.543 0z" class="st35"/><path fill="#a33823" d="m818.38 681.88c-0.05444-2.8502 4.4491-5.2476 8.631-5.3274 4.182-0.0799 5.3013 2.2101 5.3557 5.0602 0.05444 2.8501-0.97656 5.1811-5.1585 5.2609-4.182 0.07989-8.7738-2.1437-8.8282-4.9938z" class="st36"/><path fill="#d8542b" d="m819.48 684.46c-2.6902-0.94299-3.3664-5.9999-1.9828-9.9471 1.3837-3.9473 3.9202-4.1976 6.6104-3.2546 2.6901 0.94293 4.5152 2.7222 3.1316 6.6694-1.3837 3.9473-5.0691 7.4753-7.7592 6.5323z" class="st37"/><path fill="#f47f51" d="m703.47 673.92-2.5292 2.5292c-4.5795 4.5795-4.5795 12.005 0 16.585l3.4262 3.4262c1.504 1.504 3.9456 1.504 5.4496 0 0.75201-0.75201 1.1263-1.7401 1.1263-2.7248 0.00336-0.98804-0.37433-1.9728-1.1263-2.7248l-2.8934-2.8934c-1.2882-1.2882-1.2882-3.3789 0-4.6671 0.61035-0.61041 1.3995-0.93414 2.2054-0.95776 0.04047-0.00671 0.08771-0.00671 0.12817-0.00671 0.84308 0 1.6894 0.32037 2.3336 0.96442l13.037 13.037 12.029-12.029-10.535-10.535c-1.4029-1.4029-3.0013-2.4888-4.7077-3.2643-1.5141-0.68457-3.1126-1.123-4.7346-1.3152-4.7009-0.55984-9.6008 0.96781-13.209 4.5761z" class="st32"/><g fill="#fbc3b1"><path d="m706.38 683.98c0.08795-0.08789 0.18152-0.16663 0.27759-0.24097-1.018 1.2947-0.93237 3.176 0.26111 4.3694l2.8934 2.8934c0.75201 0.75201 1.1297 1.7368 1.1263 2.7248 0 0.98468-0.37427 1.9728-1.1263 2.7248-0.03308 0.03308-0.06891 0.06134-0.10284 0.09296 0.63818-0.68903 0.93988-1.5868 0.90729-2.4959-0.03094-0.95374-0.42963-1.9175-1.1816-2.6694l-2.8934-2.8934c-1.2882-1.2882-1.3606-3.3066-0.16151-4.5057z" class="st33"/><path d="m716.68 669.34c1.6221 0.1922 3.2205 0.63062 4.7346 1.3152 1.7064 0.77557 3.3048 1.8614 4.7077 3.2643l10.535 10.535-1.5327 1.5327-10.535-10.535c-1.4029-1.4029-2.9836-2.5065-4.6577-3.3143-1.4854-0.71326-3.0438-1.1918-4.6163-1.4335-4.5577-0.70313-9.2351 0.60205-12.594 3.9606l0.74896-0.74896c3.6083-3.6083 8.5082-5.1359 13.209-4.5761z" class="st33"/></g><path fill="#f79d80" d="m721.76 677.49-4.1041 4.104c-1.5242 1.5243-2.3335 3.5004-2.4212 5.5035l2.9743 2.9744c-1.0792-2.2122-0.70148-4.9573 1.1331-6.7918l4.1041-4.1041c1.8345-1.8345 4.5896-2.2088 6.8019-1.1229l-2.9845-2.9844c-2.0031 0.08771-3.9793 0.89697-5.5035 2.4213z" class="st34"/><path fill="#f79d80" d="m702.33 694.42c0.68005-0.17389 1.3243-0.52216 1.8556-1.0535l3.0245-3.0245c0.341-0.34106 0.60382-0.72986 0.79761-1.1433l1.7523 1.7523c-0.24475 0.38141-0.53058 0.74384-0.86383 1.0771l-3.0245 3.0245c-0.50909 0.50909-1.0849 0.90948-1.6973 1.212l-1.8445-1.8446z" class="st34"/><path fill="#f79d80" d="m714.17 671.56-3.4835 4.6369c-1.3321 1.7772-1.8919 3.9623-1.5817 6.1611 0.00677 0.04047 0.01013 0.08429 0.02026 0.12811 0.04047-0.00671 0.08771-0.00671 0.12817-0.00671 0.84308 0 1.6894 0.32037 2.3336 0.96442l0.49237 0.49237c-0.30688-0.59009-0.51593-1.2376-0.61377-1.9154-0.22253-1.5648 0.17877-3.1261 1.1263-4.3907l3.4869-4.6402c0.94757-1.2646 2.3336-2.0841 3.8982-2.3066 0.47894-0.06744 0.96112-0.07758 1.4332-0.03033-1.5141-0.68457-3.1126-1.123-4.7346-1.3152-0.96446 0.55305-1.8143 1.3017-2.5056 2.2223z" class="st34"/><path fill="#f79d80" d="m702.2 675.18 1.2643-1.2643c0.25684-0.25677 0.52179-0.50018 0.79114-0.7359 0.03937 0.68158 0.19104 1.3672 0.48065 2.0283l2.3296 5.3152c0.35223 0.80389 0.86597 1.4857 1.4819 2.0344-0.59918 0.12689-1.1663 0.42419-1.6301 0.888-0.14844 0.14844-0.27777 0.30853-0.39209 0.47583-0.67065-0.69104-1.2347-1.5079-1.6437-2.4406l-2.3296-5.3159c-0.14208-0.32435-0.25408-0.65382-0.35198-0.98499z" class="st34"/><path fill="#f79d80" d="m698.92 685.11 5.7921 0.35901c0.42676 0.02637 0.84851 0.00372 1.2615-0.05872-0.08936 0.80219 0.11627 1.6288 0.61359 2.3097-0.65955 0.12091-1.3361 0.17181-2.0226 0.12933l-5.7921-0.35895c-0.32928-0.02045-0.6524-0.06653-0.97217-0.12408-0.19025-0.83008-0.28986-1.6764-0.29755-2.5238 0.45533 0.14265 0.92865 0.23749 1.4172 0.26752z" class="st34"/><path fill="#faab74" d="m724.63 696.48c2.3591 2.3591 6.1839 2.3591 8.543 0l3.4847-3.4846c2.3591-2.3591 2.3591-6.184 0-8.543h-6e-5c-2.3591-2.3591-6.1839-2.3591-8.543 0l-3.4847 3.4846c-2.3591 2.3591-2.3591 6.184 0 8.543z" class="st35"/><path fill="#a33823" d="m708.66 693.21c2.8502-0.05444 5.2476 4.4491 5.3274 8.631 0.0799 4.182-2.2101 5.3013-5.0602 5.3557-2.85 0.05444-5.181-0.97656-5.2609-5.1586-0.07989-4.1819 2.1437-8.7737 4.9938-8.8282z" class="st36"/><path fill="#d8542b" d="m706.08 694.31c0.94299-2.6902 5.9999-3.3664 9.9471-1.9827 3.9473 1.3836 4.1976 3.9202 3.2546 6.6104-0.94293 2.6901-2.7222 4.5152-6.6694 3.1315-3.9473-1.3836-7.4753-5.069-6.5323-7.7592z" class="st37"/><path fill="#f47f51" d="m810.05 588.41 2.5292 2.5292c4.5795 4.5795 4.5795 12.005-6e-5 16.585l-3.4262 3.4262c-1.504 1.504-3.9456 1.504-5.4496 0-0.75201-0.75201-1.1263-1.7401-1.1263-2.7248-0.00342-0.98804 0.37427-1.9728 1.1263-2.7248l2.8934-2.8934c1.2882-1.2882 1.2882-3.3789 0-4.6671-0.61041-0.61041-1.3995-0.93414-2.2054-0.95776-0.04053-0.00671-0.08771-0.00671-0.12817-0.00671-0.84308 0-1.6895 0.32037-2.3336 0.96442l-13.037 13.037-12.029-12.029 10.535-10.535c1.403-1.4029 3.0013-2.4888 4.7077-3.2643 1.5142-0.68457 3.1126-1.123 4.7346-1.3152 4.701-0.55984 9.6008 0.96781 13.209 4.5761z" class="st32"/><g fill="#fbc3b1"><path d="m807.13 598.48c-0.08789-0.08789-0.18146-0.16663-0.27753-0.24097 1.018 1.2947 0.93237 3.176-0.26111 4.3694l-2.8934 2.8934c-0.75201 0.75201-1.1297 1.7368-1.1263 2.7248 0 0.98468 0.37427 1.9728 1.1263 2.7248 0.03302 0.03302 0.06891 0.06134 0.10278 0.09296-0.63812-0.68903-0.93982-1.5869-0.90723-2.4959 0.03094-0.95374 0.42963-1.9175 1.1816-2.6695l2.8934-2.8934c1.2882-1.2882 1.3606-3.3066 0.16151-4.5057z" class="st33"/><path d="m796.84 583.84c-1.622 0.1922-3.2205 0.63062-4.7346 1.3152-1.7064 0.77557-3.3048 1.8614-4.7077 3.2643l-10.535 10.535 1.5327 1.5327 10.535-10.535c1.4029-1.4029 2.9836-2.5065 4.6577-3.3143 1.4855-0.71326 3.0438-1.1918 4.6163-1.4335 4.5576-0.70313 9.2351 0.60205 12.594 3.9606l-0.74896-0.74896c-3.6083-3.6083-8.5082-5.1359-13.209-4.5761z" class="st33"/></g><path fill="#f79d80" d="m791.75 591.98 4.1041 4.104c1.5242 1.5242 2.3336 3.5004 2.4213 5.5035l-2.9744 2.9744c1.0792-2.2122 0.70148-4.9573-1.133-6.7918l-4.1041-4.1041c-1.8345-1.8345-4.5896-2.2088-6.8019-1.1229l2.9845-2.9844c2.0031 0.0877 3.9792 0.89697 5.5035 2.4213z" class="st34"/><path fill="#f79d80" d="m811.18 608.92c-0.68005-0.17389-1.3243-0.52216-1.8557-1.0535l-3.0245-3.0245c-0.341-0.34106-0.60388-0.72986-0.79767-1.1433l-1.7523 1.7523c0.24475 0.38141 0.53052 0.74384 0.86383 1.0771l3.0245 3.0245c0.50909 0.50909 1.0849 0.90948 1.6972 1.212l1.8446-1.8446z" class="st34"/><path fill="#f79d80" d="m799.34 586.06 3.4835 4.6369c1.3321 1.7772 1.8919 3.9623 1.5816 6.1611-0.00671 0.04047-0.01013 0.08429-0.0202 0.12811-0.04053-0.00671-0.08771-0.00671-0.12817-0.00671-0.84308 0-1.6895 0.32037-2.3336 0.96442l-0.49237 0.49237c0.30682-0.59015 0.51593-1.2376 0.61371-1.9154 0.2226-1.5648-0.17871-3.1261-1.1263-4.3907l-3.4869-4.6402c-0.94757-1.2646-2.3336-2.0841-3.8983-2.3066-0.47888-0.06744-0.96112-0.07758-1.4332-0.03033 1.5142-0.68457 3.1126-1.123 4.7346-1.3152 0.96454 0.55305 1.8143 1.3017 2.5056 2.2223z" class="st34"/><path fill="#f79d80" d="m811.31 589.68-1.2643-1.2643c-0.25684-0.25677-0.52179-0.50018-0.7912-0.7359-0.03937 0.68158-0.19098 1.3672-0.48059 2.0283l-2.3296 5.3152c-0.35223 0.80389-0.86597 1.4857-1.4819 2.0344 0.59918 0.12689 1.1663 0.42419 1.6301 0.888 0.14844 0.14844 0.27777 0.30853 0.39203 0.47583 0.67065-0.69104 1.2348-1.508 1.6438-2.4406l2.3296-5.3159c0.14214-0.32435 0.25414-0.65382 0.35204-0.98499z" class="st34"/><path fill="#f79d80" d="m814.59 599.61-5.7921 0.35895c-0.4267 0.02643-0.84845 0.00372-1.2614-0.05865 0.08936 0.80219-0.11633 1.6288-0.61365 2.3097 0.65955 0.12091 1.3361 0.17181 2.0226 0.12933l5.792-0.35895c0.32935-0.02045 0.6524-0.06653 0.97223-0.12408 0.19019-0.83008 0.28986-1.6764 0.29749-2.5238-0.45527 0.14263-0.9286 0.23748-1.4172 0.26751z" class="st34"/><path fill="#faab74" d="m788.89 610.98c-2.3591 2.3591-6.184 2.3591-8.543 0l-3.4847-3.4846c-2.3591-2.3591-2.3591-6.184 0-8.543v-6e-5c2.3591-2.3591 6.184-2.3591 8.543 0l3.4847 3.4847c2.3591 2.3591 2.3591 6.184 0 8.543z" class="st35"/><path fill="#a33823" d="m804.85 607.71c-2.8502-0.05444-5.2476 4.4491-5.3274 8.631-0.0799 4.182 2.2101 5.3013 5.0602 5.3557s5.1811-0.97656 5.261-5.1586c0.07989-4.1819-2.1437-8.7737-4.9938-8.8282z" class="st36"/><path fill="#d8542b" d="m807.43 608.81c-0.94299-2.6902-5.9999-3.3664-9.9471-1.9827-3.9473 1.3836-4.1976 3.9202-3.2546 6.6104 0.94299 2.6901 2.7222 4.5152 6.6694 3.1315 3.9473-1.3836 7.4753-5.069 6.5324-7.7592z" class="st37"/><path fill="#f05b71" d="m841.34 625.31c-0.89844-0.8985-2.3551-0.8985-3.2536 0l-5.4804 5.4804c-0.89844 0.89844-0.89844 2.3552 0 3.2536s2.3552 0.89844 3.2536 0l5.4804-5.4804c0.8985-0.8985 0.8985-2.3552 0-3.2536z" class="st38"/><path fill="#f05b71" d="m762.03 687.16c-1.2706 0-2.3007 1.03-2.3007 2.3007v7.7504c0 1.2706 1.03 2.3007 2.3007 2.3007 1.2706 0 2.3006-1.03 2.3006-2.3007v-7.7504c-1e-5 -1.2706-1.03-2.3007-2.3006-2.3007z" class="st38"/><path fill="#ffd54c" d="m785.74 547.35c-1.2706 0-2.3006 1.03-2.3006 2.3007v7.7504c0 1.2706 1.03 2.3007 2.3006 2.3007 1.2706 0 2.3007-1.03 2.3007-2.3007v-7.7504c0-1.2706-1.03-2.3007-2.3007-2.3007z" class="st39"/><path fill="#ffd54c" d="m710.07 610.8c-0.89844 0.8985-0.89844 2.3552 0 3.2536l5.4804 5.4804c0.8985 0.89844 2.3552 0.89844 3.2537 0 0.89844-0.8985 0.89844-2.3552 0-3.2537l-5.4804-5.4804c-0.89844-0.89844-2.3552-0.89844-3.2536 0z" class="st39"/><path fill="#69be5a" d="m819.12 595.02c-1.0392 3.9008-0.03967 8.232 3.0202 11.292 1.5542 1.5543 3.4364 2.5769 5.4236 3.0708 3.5236 0.87579 6.7947-2.3953 5.9189-5.9189-0.49396-1.9872-1.5166-3.8694-3.0708-5.4236-3.0599-3.0599-7.391-4.0594-11.292-3.0202z" class="st8"/><path fill="#599f4d" d="m833.48 603.46c-0.49396-1.9872-1.5166-3.8694-3.0708-5.4236-3.0599-3.0599-7.391-4.0594-11.292-3.0202l13.053 13.053c1.1487-1.1488 1.7476-2.8474 1.3097-4.6092z" class="st9"/><path fill="#fff" d="m832.39 770.1c-1.4734 0-2.6675-1.1942-2.6675-2.6675s1.1942-2.6675 2.6675-2.6675c15.518 0 28.143-12.625 28.143-28.142 0-1.4734 1.1941-2.6675 2.6675-2.6675 1.4734 0 2.6675 1.1942 2.6675 2.6675 0 18.459-15.018 33.478-33.478 33.478z" class="st40"/><path fill="#fff" d="m704.28 770.1c-16.256 0-30.118-11.609-32.961-27.604-0.25787-1.4505 0.70911-2.8353 2.1596-3.0927 1.45-0.26257 2.8353 0.70752 3.0932 2.1591 2.3893 13.444 14.043 23.202 27.708 23.202 1.4734 0 2.6675 1.1942 2.6675 2.6675s-1.1941 2.6675-2.6676 2.6675z" class="st40"/><path fill="#fff" d="m841.95 778.82c-1.4734 0-2.6675-1.1941-2.6675-2.6675 0-1.4734 1.1942-2.6675 2.6675-2.6675 15.518 0 28.142-12.625 28.142-28.143 0-1.4734 1.1942-2.6675 2.6675-2.6675s2.6675 1.1941 2.6675 2.6675c0 18.459-15.018 33.478-33.478 33.478z" class="st40"/><path fill="#ffd67b" d="m586.99 801.31h-154.94v15.561h154.94c4.297 0 7.7803-3.4834 7.7803-7.7803 0-4.2969-3.4833-7.7803-7.7803-7.7803z" class="st7"/><path fill="#edbf65" d="m432.05 801.31h52.817v15.561h-52.817v-15.561z" class="st41"/><path fill="#ffe4ae" d="m484.86 801.31h7.2347v15.561h-7.2347v-15.561z" class="st42"/><path fill="#ffe4ae" d="m432.05 801.31h21.874v15.561h-21.874v-15.561z" class="st42"/><path fill="#599f4d" d="m548.06 793.93h-21.037c-2.038 0-3.6901 1.6521-3.6901 3.6901 0 2.038 1.6521 3.6901 3.6901 3.6901h21.037c2.038 0 3.6901-1.6521 3.6901-3.6901 0-2.038-1.6522-3.6901-3.6901-3.6901z" class="st9"/><path fill="#69be5a" d="m511.95 793.93h-21.037c-2.038 0-3.6901 1.6521-3.6901 3.6901 0 2.038 1.6521 3.6901 3.6901 3.6901h21.037c2.038 0 3.6901-1.6521 3.6901-3.6901 0-2.038-1.6521-3.6901-3.6901-3.6901z" class="st8"/><path fill="#69be5a" d="m562.88 794.08-20.212-5.8326c-1.9581-0.565-4.0035 0.56427-4.5685 2.5223s0.56421 4.0035 2.5223 4.5685l20.212 5.8326c1.9581 0.56506 4.0035-0.56421 4.5685-2.5223v-6e-5c0.56506-1.9581-0.56421-4.0034-2.5223-4.5685z" class="st8"/><path fill="#e04362" d="m577.7 798.61a2.7078 2.7078 0 0 1-2.7078 2.7078 2.7078 2.7078 0 0 1-2.7078-2.7078 2.7078 2.7078 0 0 1 2.7078-2.7078 2.7078 2.7078 0 0 1 2.7078 2.7078z" class="st43"/><path fill="#e04362" d="m571.34 795.9h3.654v5.4157h-3.654v-5.4157z" class="st43"/><path fill="#f05b71" d="m574.05 798.61a2.7078 2.7078 0 0 1-2.7078 2.7078 2.7078 2.7078 0 0 1-2.7078-2.7078 2.7078 2.7078 0 0 1 2.7078-2.7078 2.7078 2.7078 0 0 1 2.7078 2.7078z" class="st38"/><path fill="#e04362" d="m564.23 798.61a2.7078 2.7078 0 0 1-2.7078 2.7078 2.7078 2.7078 0 0 1-2.7078-2.7078 2.7078 2.7078 0 0 1 2.7078-2.7078 2.7078 2.7078 0 0 1 2.7078 2.7078z" class="st43"/><path fill="#e04362" d="m557.87 795.9h3.654v5.4157h-3.654v-5.4157z" class="st43"/><path fill="#f05b71" d="m560.58 798.61a2.7078 2.7078 0 0 1-2.7078 2.7078 2.7078 2.7078 0 0 1-2.7078-2.7078 2.7078 2.7078 0 0 1 2.7078-2.7078 2.7078 2.7078 0 0 1 2.7078 2.7078z" class="st38"/><path fill="#e04362" d="m544.23 798.61a2.7078 2.7078 0 0 1-2.7078 2.7078 2.7078 2.7078 0 0 1-2.7078-2.7078 2.7078 2.7078 0 0 1 2.7078-2.7078 2.7078 2.7078 0 0 1 2.7078 2.7078z" class="st43"/><path fill="#e04362" d="m537.87 795.9h3.6539v5.4157h-3.6539v-5.4157z" class="st43"/><path fill="#f05b71" d="m540.58 798.61a2.7078 2.7078 0 0 1-2.7078 2.7078 2.7078 2.7078 0 0 1-2.7078-2.7078 2.7078 2.7078 0 0 1 2.7078-2.7078 2.7078 2.7078 0 0 1 2.7078 2.7078z" class="st38"/><path fill="#e04362" d="m529.6 798.61a2.7078 2.7078 0 0 1-2.7078 2.7078 2.7078 2.7078 0 0 1-2.7078-2.7078 2.7078 2.7078 0 0 1 2.7078-2.7078 2.7078 2.7078 0 0 1 2.7078 2.7078z" class="st43"/><path fill="#e04362" d="m523.24 795.9h3.654v5.4157h-3.654v-5.4157z" class="st43"/><path fill="#f05b71" d="m525.95 798.61a2.7078 2.7078 0 0 1-2.7078 2.7078 2.7078 2.7078 0 0 1-2.7078-2.7078 2.7078 2.7078 0 0 1 2.7078-2.7078 2.7078 2.7078 0 0 1 2.7078 2.7078z" class="st38"/><path fill="#565067" d="m923.98 718.34h-48.033c-5.8835 0-10.653-4.7695-10.653-10.653 0-5.8835 4.7695-10.653 10.653-10.653h48.033v21.306z" class="st25"/><path fill="#3c384c" d="m865.46 709.49c0.86072 5.02 5.2227 8.8438 10.488 8.8438h48.033v-8.8438h-58.521z" class="st44"/><path fill="#bdbdd1" d="m901.67 690.02v68.553c0 11.639 9.4349 21.074 21.073 21.074h111.69c11.639 0 21.073-9.4349 21.073-21.074v-68.553h-153.84z" class="st45"/><path fill="#a4a3bb" d="m1042.4 690.02v68.553c0 11.639-8.6287 21.074-19.273 21.074h11.344c11.639 0 21.073-9.435 21.073-21.074v-68.553h-13.145z" class="st46"/><path fill="#d8d6e8" d="m963.3 703.89h-44.917c-1.8945 0-3.4302-1.5358-3.4302-3.4302s1.5358-3.4302 3.4302-3.4302h44.917c1.8945 0 3.4302 1.5358 3.4302 3.4302-1e-5 1.8945-1.5358 3.4302-3.4302 3.4302z" class="st4"/><path fill="#d8d6e8" d="m986.16 703.89h-7.7355c-1.8945 0-3.4303-1.5358-3.4303-3.4302s1.5358-3.4302 3.4303-3.4302h7.7355c1.8945 0 3.4302 1.5358 3.4302 3.4302-1e-5 1.8945-1.5358 3.4302-3.4302 3.4302z" class="st4"/><g fill="#fff"><path d="m942.87 672.58c-0.77734 0-1.5474-0.33759-2.0746-0.98883-1.5161-1.8715-3.0656-4.3264-3.0656-8.3475 0-4.7505 2.1257-7.2565 3.8346-9.2686 1.49-1.7568 2.5675-3.026 2.5675-5.8185 0-2.7895-1.0764-4.0565-2.5665-5.8113-1.7089-2.0121-3.8356-4.516-3.8356-9.2645 0-4.7505 2.1267-7.2555 3.8356-9.2676 0.32611-0.38556 0.65436-0.77008 0.9649-1.1733 0.98883-1.2848 1.6016-2.5091 1.6016-4.641 0-1.4734 1.1941-2.6675 2.6675-2.6675 1.4734 0 2.6675 1.1942 2.6675 2.6675 0 3.8784-1.4473 6.2562-2.7081 7.8953-0.36371 0.47101-0.74506 0.92218-1.1264 1.3713-1.4912 1.7558-2.5675 3.0239-2.5675 5.8154 0 2.7894 1.0764 4.0565 2.5665 5.8113 1.7089 2.0121 3.8356 4.516 3.8356 9.2645 0 4.7515-2.1267 7.2576-3.8345 9.2707-1.4912 1.7558-2.5675 3.025-2.5675 5.8165 0 2.2476 0.65955 3.4876 1.8756 4.9902 0.92737 1.1441 0.75128 2.8238-0.39392 3.7512-0.4939 0.40015-1.0878 0.59497-1.6766 0.59497z" class="st40"/><path d="m977.85 672.58c-0.77734 0-1.5474-0.33759-2.0746-0.98883-1.5161-1.8715-3.0656-4.3264-3.0656-8.3475 0-4.7505 2.1257-7.2565 3.8345-9.2686 1.4901-1.7568 2.5675-3.026 2.5675-5.8185 0-2.7895-1.0764-4.0565-2.5664-5.8113-1.7089-2.0121-3.8356-4.516-3.8356-9.2645 0-4.7494 2.1257-7.2534 3.8335-9.2655 0.32825-0.38556 0.65546-0.77112 0.96698-1.1754 0.98889-1.2848 1.6016-2.5091 1.6016-4.641 0-1.4734 1.1942-2.6675 2.6675-2.6675s2.6675 1.1942 2.6675 2.6675c0 3.8784-1.4473 6.2562-2.7082 7.8953-0.36365 0.47205-0.745 0.92322-1.1274 1.3734-1.49 1.7548-2.5665 3.0229-2.5665 5.8134 0 2.7894 1.0764 4.0565 2.5665 5.8113 1.7089 2.0121 3.8356 4.516 3.8356 9.2645 0 4.7515-2.1267 7.2576-3.8346 9.2707-1.4911 1.7558-2.5675 3.025-2.5675 5.8165 0 2.2476 0.65961 3.4876 1.8756 4.9902 0.92743 1.1441 0.75128 2.8238-0.39386 3.7512-0.49389 0.40016-1.0878 0.59498-1.6766 0.59498z" class="st40"/><path d="m1012.8 672.58c-0.77734 0-1.5474-0.33759-2.0746-0.98883-1.5161-1.8715-3.0656-4.3264-3.0656-8.3475 0-4.7505 2.1257-7.2565 3.8345-9.2686 1.4901-1.7568 2.5675-3.026 2.5675-5.8185 0-2.7895-1.0764-4.0565-2.5665-5.8113-1.7089-2.0121-3.8356-4.516-3.8356-9.2645 0-4.7494 2.1257-7.2545 3.8335-9.2665 0.32721-0.38556 0.65442-0.77008 0.96594-1.1744 0.98993-1.2858 1.6026-2.5102 1.6026-4.641 0-1.4734 1.1942-2.6675 2.6675-2.6675s2.6675 1.1942 2.6675 2.6675c0 3.8773-1.4484 6.2562-2.7092 7.8953-0.36365 0.47101-0.745 0.92218-1.1264 1.3723-1.49 1.7558-2.5665 3.0239-2.5665 5.8144 0 2.7894 1.0764 4.0565 2.5665 5.8113 1.7089 2.0121 3.8356 4.516 3.8356 9.2645 0 4.7515-2.1268 7.2576-3.8346 9.2707-1.4911 1.7558-2.5675 3.025-2.5675 5.8165 0 2.2476 0.65961 3.4876 1.8756 4.9902 0.92737 1.1441 0.75128 2.8238-0.39386 3.7512-0.49389 0.40016-1.0878 0.59498-1.6766 0.59498z" class="st40"/></g><path fill="#463d49" d="m1161.9 122.6h-923.79c-14.545 0-26.336-11.791-26.336-26.336v-5e-5c0-14.545 11.791-26.336 26.336-26.336h923.79c14.545 0 26.336 11.791 26.336 26.336v5e-5c-1e-5 14.545-11.791 26.336-26.336 26.336z" class="st47"/><path fill="#504b54" d="m278.57 96.265v-7e-5c0-14.545-11.791-26.336-26.336-26.336h-14.124c-14.545 0-26.336 11.791-26.336 26.336v7e-5c0 14.545 11.791 26.336 26.336 26.336h14.124c14.545 1e-5 26.336-11.791 26.336-26.336z" class="st48"/><path fill="#463d49" d="m799.53 308.4a73.137 73.137 0 0 1-73.137 73.137 73.137 73.137 0 0 1-73.137-73.137 73.137 73.137 0 0 1 73.137-73.137 73.137 73.137 0 0 1 73.137 73.137z" class="st47"/><path fill="#463d49" d="m726.4 194.54h-6e-5c-8.7739 0-15.886-7.1126-15.886-15.886v-75.531c0-8.7739 7.1126-15.886 15.886-15.886h6e-5c8.7739 0 15.886 7.1126 15.886 15.886v75.531c0 8.7738-7.1126 15.886-15.886 15.886z" class="st47"/><path fill="#463d49" d="m716.75 122.32h19.291v174.87h-19.291v-174.87z" class="st47"/><path fill="#4e4751" d="m789.32 311.78a58.412 58.412 0 0 1-58.412 58.412 58.412 58.412 0 0 1-58.412-58.412 58.412 58.412 0 0 1 58.412-58.412 58.412 58.412 0 0 1 58.412 58.412z" class="st49"/><path fill="#463d49" d="m993.93 331.25a80.692 80.692 0 0 1-80.692 80.692 80.692 80.692 0 0 1-80.692-80.692 80.692 80.692 0 0 1 80.692-80.692 80.692 80.692 0 0 1 80.692 80.692z" class="st47"/><path fill="#463d49" d="m913.24 205.62h-6e-5c-9.6802 0-17.528-7.8474-17.528-17.528v-83.334c0-9.6802 7.8474-17.528 17.528-17.528h6e-5c9.6802 0 17.528 7.8474 17.528 17.528v83.334c0 9.6802-7.8474 17.528-17.528 17.528z" class="st47"/><path fill="#463d49" d="m902.6 125.94h21.284v192.93h-21.284v-192.93z" class="st47"/><path fill="#4e4751" d="m982.67 334.98a64.447 64.447 0 0 1-64.447 64.447 64.447 64.447 0 0 1-64.447-64.447 64.447 64.447 0 0 1 64.447-64.447 64.447 64.447 0 0 1 64.447 64.447z" class="st49"/><path fill="#edbf65" d="m341.79 760.43h17.538v6.0978h-17.538v-6.0978z" class="st41"/><path fill="#bdbdd1" d="m358.69 750.16h-15.965c-3.1314 0-5.6698 2.5385-5.6698 5.6699s2.5384 5.6699 5.6698 5.6699h15.965c3.1314 0 5.6699-2.5385 5.6699-5.6699s-2.5385-5.6699-5.6699-5.6699z" class="st45"/><g fill="#a4a3bb"><path d="m342.78 757.76a0.92373 0.92373 0 0 1-0.92373 0.92373 0.92373 0.92373 0 0 1-0.92373-0.92373 0.92373 0.92373 0 0 1 0.92373-0.92373 0.92373 0.92373 0 0 1 0.92373 0.92373z" class="st46"/><path d="m348.68 757.76a0.92373 0.92373 0 0 1-0.92373 0.92373 0.92373 0.92373 0 0 1-0.92373-0.92373 0.92373 0.92373 0 0 1 0.92373-0.92373 0.92373 0.92373 0 0 1 0.92373 0.92373z" class="st46"/><path d="m354.58 757.76a0.92373 0.92373 0 0 1-0.92373 0.92373 0.92373 0.92373 0 0 1-0.92373-0.92373 0.92373 0.92373 0 0 1 0.92373-0.92373 0.92373 0.92373 0 0 1 0.92373 0.92373z" class="st46"/><path d="m360.49 757.76a0.92373 0.92373 0 0 1-0.92373 0.92373 0.92373 0.92373 0 0 1-0.92373-0.92373 0.92373 0.92373 0 0 1 0.92373-0.92373 0.92373 0.92373 0 0 1 0.92373 0.92373z" class="st46"/><path d="m345.73 753.9a0.92373 0.92373 0 0 1-0.92373 0.92373 0.92373 0.92373 0 0 1-0.92373-0.92373 0.92373 0.92373 0 0 1 0.92373-0.92373 0.92373 0.92373 0 0 1 0.92373 0.92373z" class="st46"/><path d="m351.63 753.9a0.92373 0.92373 0 0 1-0.92373 0.92373 0.92373 0.92373 0 0 1-0.92373-0.92373 0.92373 0.92373 0 0 1 0.92373-0.92373 0.92373 0.92373 0 0 1 0.92373 0.92373z" class="st46"/><path d="m357.54 753.9a0.92373 0.92373 0 0 1-0.92373 0.92373 0.92373 0.92373 0 0 1-0.92373-0.92373 0.92373 0.92373 0 0 1 0.92373-0.92373 0.92373 0.92373 0 0 1 0.92373 0.92373z" class="st46"/></g><path fill="#ffd67b" d="m370.01 808.95-7.9732-42.389c-0.17636-0.93762-0.99524-1.6168-1.9493-1.6168h-19.067c-0.95407 0-1.773 0.6792-1.9493 1.6168l-7.9732 42.389c-0.32095 1.7063 0.38898 3.4421 1.8136 4.4346l5.0027 3.4847h25.279l5.0027-3.4847c1.4247-0.99243 2.1346-2.7283 1.8136-4.4346z" class="st7"/><path fill="#edbf65" d="m370.01 808.95-7.9732-42.389c-0.17633-0.93768-0.99524-1.6168-1.9493-1.6168h-2.5495l5.6557 51.925 5.0027-3.4848c1.4247-0.99237 2.1346-2.7282 1.8136-4.4345z" class="st41"/><path fill="#ffe4ae" d="m331.1 808.95 7.9732-42.389c0.17633-0.93768 0.99524-1.6168 1.9493-1.6168h2.5495l-5.6557 51.925-5.0027-3.4848c-1.4246-0.99237-2.1346-2.7282-1.8136-4.4345z" class="st42"/><path fill="#c74f50" d="m390.26 760.43h17.538v6.0978h-17.538v-6.0978z" class="st27"/><path fill="#bdbdd1" d="m407.17 750.16h-15.965c-3.1314 0-5.6698 2.5385-5.6698 5.6699s2.5384 5.6699 5.6698 5.6699h15.965c3.1314 0 5.6699-2.5385 5.6699-5.6699s-2.5385-5.6699-5.6699-5.6699z" class="st45"/><g fill="#a4a3bb"><path d="m391.26 757.76a0.92373 0.92373 0 0 1-0.92373 0.92373 0.92373 0.92373 0 0 1-0.92373-0.92373 0.92373 0.92373 0 0 1 0.92373-0.92373 0.92373 0.92373 0 0 1 0.92373 0.92373z" class="st46"/><path d="m397.16 757.76a0.92373 0.92373 0 0 1-0.92373 0.92373 0.92373 0.92373 0 0 1-0.92373-0.92373 0.92373 0.92373 0 0 1 0.92373-0.92373 0.92373 0.92373 0 0 1 0.92373 0.92373z" class="st46"/><path d="m403.06 757.76a0.92373 0.92373 0 0 1-0.92373 0.92373 0.92373 0.92373 0 0 1-0.92373-0.92373 0.92373 0.92373 0 0 1 0.92373-0.92373 0.92373 0.92373 0 0 1 0.92373 0.92373z" class="st46"/><path d="m408.96 757.76a0.92373 0.92373 0 0 1-0.92373 0.92373 0.92373 0.92373 0 0 1-0.92373-0.92373 0.92373 0.92373 0 0 1 0.92373-0.92373 0.92373 0.92373 0 0 1 0.92373 0.92373z" class="st46"/><path d="m394.21 753.9a0.92373 0.92373 0 0 1-0.92373 0.92373 0.92373 0.92373 0 0 1-0.92373-0.92373 0.92373 0.92373 0 0 1 0.92373-0.92373 0.92373 0.92373 0 0 1 0.92373 0.92373z" class="st46"/><path d="m400.11 753.9a0.92373 0.92373 0 0 1-0.92373 0.92373 0.92373 0.92373 0 0 1-0.92373-0.92373 0.92373 0.92373 0 0 1 0.92373-0.92373 0.92373 0.92373 0 0 1 0.92373 0.92373z" class="st46"/><path d="m406.01 753.9a0.92373 0.92373 0 0 1-0.92373 0.92373 0.92373 0.92373 0 0 1-0.92373-0.92373 0.92373 0.92373 0 0 1 0.92373-0.92373 0.92373 0.92373 0 0 1 0.92373 0.92373z" class="st46"/></g><path fill="#e57373" d="m418.48 808.95-7.9732-42.389c-0.17636-0.93762-0.99524-1.6168-1.9493-1.6168h-19.067c-0.95404 0-1.7729 0.6792-1.9493 1.6168l-7.9732 42.389c-0.32095 1.7063 0.38898 3.4421 1.8136 4.4346l5.0027 3.4847h25.279l5.0027-3.4847c1.4246-0.99243 2.1346-2.7283 1.8136-4.4346z" class="st50"/><path fill="#c74f50" d="m418.48 808.95-7.9732-42.389c-0.17633-0.93768-0.99527-1.6168-1.9493-1.6168h-2.5495l5.6557 51.925 5.0027-3.4848c1.4246-0.99237 2.1346-2.7282 1.8136-4.4345z" class="st27"/><path fill="#f19c9c" d="m379.57 808.95 7.9732-42.389c0.17633-0.93768 0.99524-1.6168 1.9493-1.6168h2.5496l-5.6557 51.925-5.0027-3.4848c-1.4247-0.99237-2.1346-2.7282-1.8136-4.4345z" class="st28"/></svg>