<?xml version="1.0" standalone="yes"?>
<svg xmlns="http://www.w3.org/2000/svg" width="793" height="380">
<path style="fill:#080807; stroke:none;" d="M0 0L0 380L793 380L793 0L0 0z"/>
<path style="fill:#f3d95d; stroke:none;" d="M60 36.4283C29.2005 40.8901 37 78.3508 37 101L37 266L37 312C37 319.884 35.8818 328.676 39.4028 336C48.8677 355.688 76.1274 350 94 350L216 350L253 350C258.434 350 265.622 351.238 270.852 349.682C277.439 347.723 269.358 334.383 268.62 330C267.211 321.636 271.943 315.719 273.61 308C275.486 299.309 274.586 287.871 274.13 279C273.327 263.365 274.498 247.639 274.29 232C273.709 188.341 274.873 144.645 274.014 101C273.706 85.3689 274.932 69.6003 274.13 54C273.906 49.636 275.49 42.0907 272.972 38.3179C270.569 34.7159 263.691 36 260 36L222 36L115 36C97.1183 36 77.6976 33.8645 60 36.4283z"/>
<path style="fill:#080807; stroke:none;" d="M45 308C48.9688 306.147 52.6786 303.527 57 302.529C63.5986 301.007 71.2591 302 78 302L119 302L267 302L267 44L108 44L69 44C62.4533 44 55.4156 43.6331 50.213 48.3935C44.2643 53.8365 45 61.6902 45 69L45 115L45 308z"/>
<path style="fill:#f3d95d; stroke:none;" d="M133 76.4391C124.453 77.785 116.21 81.826 110.174 88.0903C106.964 91.4215 104.796 96.5448 100.816 99.0116C94.6353 102.842 86.3957 102.68 80 106.711C62.5923 117.682 57.9671 139.659 66.0432 158C69.4817 165.809 76.4284 172.392 84 176.19C87.677 178.034 94.6436 178.692 96.9722 182.303C100.367 187.568 97.9685 199.878 98.0008 206C98.0163 208.953 97.6565 212.91 100.434 214.821C102.78 216.436 106.309 215.995 109 216L126 216L174 216C181.701 216 190.358 217.113 197.956 215.852C202.638 215.075 202.94 211.003 202.996 207C203.08 201.001 202.959 194.999 203.001 189C203.017 186.591 202.741 183.597 204.603 181.738C207.916 178.433 215.709 178.259 220 176.215C230.887 171.03 239.241 162.697 244.741 152C260.108 122.11 243.97 84.4663 210 78.4637C201.857 77.0248 191.99 77.4368 184 79.4784C179.709 80.5749 174.434 83.7403 170 83.4977C166.233 83.2915 162.56 80.2295 159 79.0401C150.778 76.2932 141.607 75.0836 133 76.4391z"/>
<path style="fill:#080807; stroke:none;" d="M101 173C99.2518 170.202 97.2088 167.687 95.3002 165C93.1722 162.004 90.3495 157.843 90.3611 154.005C90.3679 151.782 92.02 148.526 94.7168 149.921C97.6697 151.449 98.7968 157.289 100.468 160C104.598 166.699 111.019 172.178 119 173C116.057 168.227 112.509 163.692 111.537 158C111.19 155.97 111.164 153.049 113.314 151.921C115.258 150.902 117.031 152.5 117.988 154.078C121.369 159.651 121.198 165.896 127.093 170.146C131.527 173.342 136.811 173 142 173L166 173C180.249 173 193.586 174.059 204.985 163.815C209.293 159.944 212.252 155.201 214.691 150C215.691 147.87 216.658 144.156 219.204 143.346C224.49 141.663 222.798 149.716 221.931 152C219.053 159.577 213.577 166.364 207 171C210.817 172.354 214.5 170.48 218 168.73C226.975 164.242 233.752 156.919 238.24 148C249.954 124.722 238.914 92.5417 212 86.8187C202.984 84.9014 191.86 85.2595 183 87.7462C178.794 88.9266 174.277 92.4151 170 92.7523C165.63 93.0968 160.997 88.0474 157 86.4645C149.837 83.6279 141.608 83.4691 134 84.0934C126.104 84.7412 118.391 89.9742 113.518 96.0146C110.906 99.2521 109.187 103.892 105.79 106.397C102.971 108.476 99.2523 107.822 96 108.518C91.1667 109.551 86.014 111.749 82.0008 114.637C67.7388 124.9 66.0939 147.458 76.9275 160.829C82.8055 168.084 91.8168 172.249 101 173z"/>
<path style="fill:#f3d95d; stroke:none;" d="M480 153C487.056 153.789 488.82 158.383 488.985 165C489.359 179.978 489.024 195.017 489 210C488.988 217.402 488.375 224.304 480 226L480 230L510 230L510 226C499.649 223.023 501.872 210.189 509 205C511.712 212.154 516.997 218.483 521 225L515 226L515 230L547 230L547 226C536.722 224.855 530.998 212.763 525.659 205C523.87 202.399 519.815 198.472 520.541 195.015C521.109 192.309 524.067 190.413 526.001 188.718C530.948 184.384 535.27 180.689 542 180L542 176L514 176L514 180C520.685 180.218 521.636 183.042 516.976 188C512.466 192.798 507.656 197.344 503 202L503 145C496.616 145.808 481.316 145.421 480 153M705.094 145.898C695.774 149.533 701.575 164.134 710.906 160.138C720.112 156.195 714.17 142.359 705.094 145.898M197.298 147.086C195.177 148.238 194.631 151.046 193.562 153.001C191.727 156.358 187.59 159.197 186.752 162.981C185.988 166.429 189.219 167.84 192.004 166.623C197.066 164.413 200.929 158.208 202.192 153.001C202.926 149.978 201.438 144.838 197.298 147.086M296 151L296 156C300.862 156.267 304.403 157.843 305.606 163.004C306.634 167.415 306 172.497 306 177L306 203C306 208.165 307.182 215.105 305.258 219.985C303.466 224.529 299.435 225.757 295 226L295 230L326 230L326 226C321.177 225.736 316.861 224.142 315.434 218.996C313.922 213.548 315 206.622 315 201L315 166C323.909 180.055 328.891 197.696 335.421 213C337.364 217.553 339.591 228.172 344.39 230.396C352.357 234.087 354.993 222.018 357 217C363.959 199.6 373.055 182.08 378 164C381.44 175.639 379 190.874 379 203C379 208.394 379.93 214.877 377.852 219.981C375.879 224.826 371.753 225.779 367 226L367 230L406 230L406 226C401.799 225.805 397.662 225.201 395.703 220.945C393.358 215.852 394 209.441 394 204L394 178C394 173.157 393.327 167.68 394.804 163.001C396.793 156.699 403.982 157.101 405 151L385 151C382.087 151 377.982 150.332 375.418 152.028C371.311 154.745 369.518 163.594 367.811 168C362.268 182.311 355.917 196.465 351 211C345.148 197.078 339.609 183.024 334 169C332.172 164.429 330.361 155.04 326.301 152.028C323.94 150.277 319.752 151 317 151L296 151M618 151L618 156C626.946 156.676 627 163.601 627 171L627 204C627 208.89 628.081 215.36 626.258 219.985C624.466 224.529 620.435 225.757 616 226L616 230L657 230L657 226C653.24 225.968 649.219 226.031 646.148 223.486C639.442 217.929 642 201.794 642 194C652.008 194.001 661.771 195.074 663 207L668 207L668 175L663 175C662.343 187.002 651.786 187.999 642 188L642 167C642.005 164.341 641.533 160.674 643.603 158.603C646.029 156.178 650.9 156.999 654 157C665.898 157.004 675.184 159.793 677 173L682 173L681 151L618 151M741 182L741 212C741 216.525 740.302 221.871 743.009 225.812C748.549 233.877 770.068 233.7 768 221C759.685 225.715 756.059 222.145 755.17 213C754.181 202.827 755 192.219 755 182L767 182L767 176L755 176L755 163C748.991 163.464 747.387 167.983 742.985 171.471C740.32 173.581 727.179 180.552 737.859 181.941C738.834 182.068 740.051 181.989 741 182M451 221C451.348 224.37 452.025 227.929 455.214 229.821C461.146 233.341 470.694 230.114 471 223C462.639 223.932 463.002 216.452 463 210C462.996 198.648 466.444 181.22 452.999 176.388C445.604 173.73 433.04 173.638 426.015 177.442C421.647 179.808 417.628 186.245 422.434 190.396C429.553 196.545 433.269 184.731 437.329 181.746C441.854 178.42 447.266 182.283 448.566 187.004C450.59 194.352 445.746 196.712 440 199.306C432.444 202.716 422.307 205.816 418.587 214.001C414.398 223.217 423.304 231.111 432 230.946C440.467 230.785 444.999 226.17 451 221M604 221C598.971 216.092 592.963 223.1 587 223.814C572.814 225.513 568.096 211.592 568 200L593 200C595.91 200 600.949 200.912 603.397 198.972C609.604 194.053 600.325 181.218 595.96 178.482C583.718 170.809 565.251 175.449 557.225 187.015C547.909 200.438 552.218 222.492 568 228.87C580.922 234.093 594.251 230.248 604 221M691 182C693.649 182.578 696.57 183.072 698.397 185.303C700.884 188.341 700.893 194.25 700.985 198C701.216 207.427 704.076 223.555 692 226L692 230L724 230L724 226C716.661 225.175 715.182 219.712 715.015 213C714.7 200.35 715 187.654 715 175C708.761 175.793 693.205 175.352 691 182z"/>
<path style="fill:#080807; stroke:none;" d="M106 181L106 208L195 208L195 181L106 181M570 194C576.732 194 583.358 194.233 590 193C589.974 190.694 590.106 188.252 589.142 186.093C583.727 173.967 570.884 185.426 570 194M448 201C445.016 202.76 441.895 204.33 439.004 206.244C437.335 207.348 435.696 208.528 434.434 210.104C426.516 219.994 442.925 225.135 447.821 215.956C449.114 213.533 448.996 210.664 448.998 208.001C449.001 205.466 448.972 203.317 448 201z"/>
<path style="fill:#f3d95d; stroke:none;" d="M92.0039 236.743C83.9466 239.821 82.2548 250.586 87.4298 256.895C90.6007 260.761 95.1569 262.134 100 261.956C112.685 261.49 116.221 247.902 127 244.348C133.486 242.209 139.919 245.649 145 249.529C147.571 251.492 150.464 255.36 154 255.364C157.127 255.368 159.718 252.264 162 250.513C166.727 246.885 172.744 243.146 179 243.822C185.247 244.496 188.971 249.878 193.039 253.985C198.235 259.231 204.354 262.979 212 261.786C214.162 261.449 216.184 260.644 217.956 259.347C226.975 252.745 223.403 231.299 210.059 236.604C207.185 237.747 204.991 241.821 208.322 243.887C210.124 245.005 212.646 244.113 214.238 245.692C217.306 248.733 213.13 253.322 209.995 254.044C205.182 255.153 200.587 250.052 197.715 246.96C192.724 241.588 187.661 236.719 180 236.093C174.265 235.625 169.079 236.607 164 239.324C161.037 240.909 157.538 244.544 154 244.418C150.545 244.296 146.979 240.81 144 239.262C137.608 235.941 129.989 234.678 123 237.109C114 240.238 109.643 253.204 100.001 254.018C96.2902 254.331 90.2505 249.423 93.7863 245.642C95.9555 243.322 100.32 245.388 101.744 241.853C103.908 236.477 95.1621 235.536 92.0039 236.743z"/>
<path style="fill:#080807; stroke:none;" d="M264 342C260.241 330.445 260.903 321.584 264 310L96 310L70 310C65.4522 310 60.3975 309.423 56 310.804C49.5161 312.84 45.0802 319.267 45.0802 326C45.0802 332.65 49.5501 339.322 56 341.347C60.3182 342.703 65.5288 342 70 342L96 342L264 342z"/>
<path style="fill:#f3d95d; stroke:none;" d="M68.3372 320.028C63.2143 323.641 71.0139 326.851 74 326.981C91.9262 327.758 110.055 327 128 327C132.89 327 143.618 328.984 147.392 325.262C149.115 323.562 148.871 320.864 146.681 319.742C143.511 318.118 138.451 319 135 319L87 319C82.1926 319 72.415 317.152 68.3372 320.028M163.333 320.027C159.689 322.538 162.91 326.162 166.044 326.772C176.61 328.827 189.235 327.004 200 327C203.343 326.999 208.757 327.765 211.377 325.143C215.178 321.341 208.832 319.143 205.999 319.019C196.039 318.585 185.97 319 176 319C172.432 319 166.428 317.894 163.333 320.027z"/>
</svg>
