<?xml version="1.0" standalone="no"?>
<!DOCTYPE svg PUBLIC "-//W3C//DTD SVG 20010904//EN"
 "http://www.w3.org/TR/2001/REC-SVG-20010904/DTD/svg10.dtd">
<svg version="1.0" xmlns="http://www.w3.org/2000/svg"
 width="793.000000pt" height="380.000000pt" viewBox="0 0 793.000000 380.000000"
 preserveAspectRatio="xMidYMid meet">
<metadata>
Created by potrace 1.12, written by Peter Selinger 2001-2015
</metadata>
<g transform="translate(0.000000,380.000000) scale(0.100000,-0.100000)"
fill="#000000" stroke="none">
<path d="M0 1900 l0 -1900 3965 0 3965 0 0 1900 0 1900 -3965 0 -3965 0 0
-1900z m2738 180 l2 -1345 -27 -60 c-23 -50 -28 -74 -28 -140 0 -69 4 -89 28
-134 31 -60 34 -86 11 -95 -9 -3 -494 -6 -1078 -6 -1197 0 -1122 -5 -1202 76
-79 79 -75 -22 -72 1515 l3 1364 22 40 c12 22 36 54 55 72 69 66 -8 62 1193
60 l1090 -2 3 -1345z m2395 -201 c55 55 96 105 92 111 -3 5 -24 10 -46 10 -32
0 -39 3 -39 20 0 19 7 20 140 20 133 0 140 -1 140 -20 0 -14 -7 -20 -21 -20
-36 0 -86 -30 -153 -91 l-65 -60 85 -122 c100 -141 143 -187 179 -187 18 0 25
-5 25 -20 0 -19 -7 -20 -160 -20 -153 0 -160 1 -160 20 0 15 7 20 24 20 14 0
27 4 30 9 5 7 -96 174 -120 200 -2 3 -15 -6 -29 -19 -21 -20 -25 -32 -25 -85
0 -67 18 -105 51 -105 12 0 19 -7 19 -20 0 -19 -7 -20 -150 -20 -143 0 -150 1
-150 20 0 15 7 20 24 20 15 0 33 11 45 26 20 26 21 38 21 338 0 346 -2 359
-58 364 -23 2 -32 8 -32 21 0 16 16 21 98 35 53 10 104 18 112 19 13 2 16 -37
20 -281 l5 -283 98 100z m1996 448 c23 -20 33 -58 21 -88 -25 -60 -115 -59
-140 2 -31 73 56 136 119 86z m-3744 -339 c66 -164 123 -294 127 -290 4 4 58
138 121 297 l115 290 148 0 c130 0 149 -2 152 -16 2 -12 -7 -18 -31 -23 -71
-13 -72 -16 -75 -325 -2 -152 0 -291 3 -309 8 -46 38 -72 80 -72 28 0 35 -4
35 -20 0 -19 -7 -20 -195 -20 -188 0 -195 1 -195 20 0 16 7 20 34 20 19 0 44
9 57 19 l24 19 3 298 c2 164 1 296 -1 294 -3 -3 -57 -135 -122 -295 -172 -427
-151 -385 -194 -385 l-37 0 -139 330 c-76 182 -142 333 -147 336 -11 7 -10
-501 2 -551 11 -47 32 -65 77 -65 26 0 33 -4 33 -20 0 -19 -7 -20 -155 -20
-148 0 -155 1 -155 20 0 15 7 20 29 20 17 0 42 10 58 24 l28 24 0 299 c0 337
-2 344 -69 357 -27 5 -36 12 -36 27 0 19 6 19 153 17 l152 -3 120 -297z m3416
295 c1 -5 4 -54 8 -111 6 -99 5 -102 -15 -102 -17 0 -23 8 -28 39 -8 51 -48
98 -94 111 -20 6 -84 10 -142 8 l-105 -3 -3 -155 -2 -156 72 6 c103 9 126 25
142 103 4 15 13 27 21 27 13 0 15 -25 15 -160 0 -131 -3 -160 -14 -160 -8 0
-20 19 -28 42 -19 60 -54 82 -139 86 l-71 4 3 -136 c5 -161 12 -175 98 -184
41 -4 51 -8 51 -23 0 -18 -11 -19 -200 -19 -193 0 -200 1 -200 20 0 16 7 20
30 20 17 0 39 9 50 20 19 19 20 33 20 333 0 345 2 336 -62 352 -18 5 -28 14
-28 26 0 18 13 19 310 19 171 0 310 -3 311 -7z m749 -183 l0 -60 60 0 c57 0
60 -1 60 -25 0 -24 -3 -25 -60 -25 l-60 0 0 -187 c0 -204 6 -231 52 -247 22
-8 32 -6 48 9 30 27 49 6 27 -29 -33 -50 -159 -61 -215 -19 -48 36 -52 54 -52
271 l0 202 -35 0 c-53 0 -48 32 10 60 25 12 62 42 83 66 23 28 44 44 59 44 21
0 23 -4 23 -60z m-3035 -61 c51 -14 92 -53 105 -98 5 -20 10 -105 10 -189 0
-170 6 -195 48 -190 41 5 41 -27 0 -52 -49 -30 -103 -27 -139 9 -17 17 -29 40
-29 55 0 25 -1 24 -42 -17 -62 -62 -143 -82 -212 -53 -48 20 -76 61 -76 111 0
73 45 113 211 183 l94 40 3 54 c4 67 -23 108 -68 108 -46 0 -60 -10 -85 -60
-13 -26 -31 -50 -40 -54 -29 -11 -62 -6 -76 10 -20 25 -16 81 8 106 42 41 198
62 288 37z m1388 0 c46 -12 106 -63 123 -104 6 -16 15 -51 19 -77 l7 -48 -183
-2 -184 -3 -3 -30 c-6 -50 17 -129 49 -168 54 -65 137 -70 235 -12 41 24 48
25 61 12 13 -12 10 -18 -24 -46 -113 -93 -296 -92 -393 2 -94 91 -108 257 -30
370 63 92 205 139 323 106z m1249 -230 c3 -225 4 -242 22 -255 11 -8 30 -14
43 -14 16 0 23 -6 23 -20 0 -19 -7 -20 -160 -20 -153 0 -160 1 -160 20 0 15 7
20 24 20 15 0 33 11 45 26 19 24 21 40 21 184 0 192 -7 218 -61 226 -48 8 -52
31 -6 39 123 22 184 33 194 34 9 1 13 -60 15 -240z"/>
<path d="M545 3344 c-16 -8 -38 -23 -49 -32 -48 -44 -46 13 -46 -1332 0 -716
4 -1260 9 -1260 5 0 14 7 21 15 7 8 35 22 63 30 44 13 194 15 1089 15 l1038 0
0 1290 0 1290 -1047 0 c-931 0 -1051 -2 -1078 -16z m985 -320 c36 -8 88 -28
117 -44 l52 -29 46 20 c65 29 168 49 255 49 244 0 442 -152 489 -378 17 -84
14 -201 -9 -274 -35 -114 -137 -244 -238 -304 -52 -31 -146 -64 -184 -64 l-28
0 0 -164 c0 -136 -3 -167 -16 -180 -14 -14 -74 -16 -508 -16 -397 0 -496 3
-505 13 -6 8 -12 77 -13 177 l-3 164 -45 11 c-261 68 -388 341 -271 580 51
103 154 176 291 205 54 11 65 18 85 49 54 87 166 169 258 191 54 13 159 10
227 -6z m-532 -1600 c42 -29 12 -87 -32 -62 -15 9 -22 7 -33 -8 -20 -27 -12
-64 18 -87 44 -32 81 -16 169 73 87 88 124 105 210 97 62 -5 114 -28 174 -76
l38 -31 41 35 c81 69 201 93 283 56 23 -10 63 -45 93 -79 77 -89 140 -111 185
-66 35 34 9 108 -31 86 -44 -25 -72 33 -31 62 33 23 72 19 107 -10 74 -62 54
-182 -36 -220 -78 -33 -154 -5 -233 84 -83 95 -145 110 -243 60 -21 -10 -58
-37 -82 -59 -23 -21 -47 -39 -54 -39 -6 0 -30 17 -54 39 -49 45 -108 78 -154
87 -53 10 -99 -13 -166 -83 -93 -98 -166 -124 -244 -86 -53 25 -75 66 -70 132
3 46 9 59 36 83 35 32 75 36 109 12z"/>
<path d="M1319 2957 c-95 -27 -184 -99 -228 -185 -19 -37 -23 -39 -92 -51
-201 -33 -309 -159 -297 -346 6 -86 34 -151 91 -208 45 -45 129 -87 190 -95
l42 -5 -43 47 c-73 79 -104 174 -64 195 26 14 49 -3 56 -41 13 -68 139 -198
191 -198 23 0 23 0 -10 56 -43 71 -56 141 -30 160 27 20 51 1 64 -53 16 -64
45 -108 89 -138 l37 -25 282 0 c265 0 286 1 340 22 84 31 182 130 213 215 25
69 53 90 77 58 25 -36 -29 -155 -107 -235 l-51 -53 33 7 c86 17 198 102 258
196 86 134 92 308 16 458 -71 141 -245 225 -431 207 -73 -7 -174 -36 -209 -61
-30 -21 -52 -17 -98 16 -75 55 -229 82 -319 57z m700 -636 c32 -59 -87 -219
-141 -190 -28 15 -22 41 22 83 22 21 43 51 47 65 14 61 51 83 72 42z"/>
<path d="M1060 1855 l0 -135 445 0 445 0 0 135 0 135 -445 0 -445 0 0 -135z"/>
<path d="M587 700 c-78 -15 -137 -84 -137 -160 0 -76 56 -142 136 -160 22 -6
478 -10 1048 -10 l1008 0 -7 23 c-30 98 -33 178 -10 253 8 27 15 52 15 57 0 9
-2003 7 -2053 -3z m891 -102 c18 -18 14 -46 -7 -58 -13 -6 -154 -10 -391 -10
-237 0 -378 4 -391 10 -21 12 -26 56 -6 63 6 3 185 6 398 6 287 1 388 -2 397
-11z m642 -7 c13 -26 4 -48 -23 -55 -12 -3 -117 -6 -233 -6 -190 0 -214 2
-234 18 -19 16 -21 22 -11 40 12 22 15 22 251 22 226 0 240 -1 250 -19z"/>
<path d="M4430 1760 c-100 -55 -134 -116 -90 -160 24 -24 39 -25 85 -6 51 22
66 53 63 130 l-3 65 -55 -29z"/>
<path d="M5746 1964 c-24 -23 -56 -79 -56 -99 0 -3 44 -5 99 -5 115 0 126 6
110 63 -19 70 -99 91 -153 41z"/>
</g>
</svg>
